<?xml version="1.0" encoding="utf-8"?>
<!-- Generator: Adobe Illustrator 18.1.1, SVG Export Plug-In . SVG Version: 6.00 Build 0)  -->
<svg version="1.1" id="圖層_1" xmlns="http://www.w3.org/2000/svg" xmlns:xlink="http://www.w3.org/1999/xlink" x="0px" y="0px"
	 viewBox="245 21 891 88" enable-background="new 245 21 891 88" xml:space="preserve">
<rect x="1078.5" y="67.7" fill="#C45D40" width="57.5" height="4.4"/>
<rect x="245" y="67.7" fill="#C45D40" width="49.7" height="4.4"/>
<g>
	<path fill="#C45D40" d="M306,89.7V40.3h10.1l12,35c1.1,3.3,1.9,5.7,2.4,7.3c0.6-1.8,1.5-4.4,2.7-7.9l12.2-34.4h9v49.4h-6.5V48.3
		l-14.7,41.4h-6.1l-14.7-42.1v42.1H306z"/>
	<path fill="#C45D40" d="M359.7,89.7l19.5-49.4h7.2l20.8,49.4h-7.7l-5.9-15h-21.2l-5.6,15H359.7z M374.3,69.4h17.2l-5.3-13.7
		c-1.6-4.2-2.8-7.6-3.6-10.2c-0.6,3.2-1.6,6.3-2.7,9.4L374.3,69.4z"/>
	<path fill="#C45D40" d="M413.7,89.7V40.3h6.7v49.4H413.7z"/>
	<path fill="#C45D40" d="M432.2,89.7V40.3h6.9l26.7,38.8V40.3h6.4v49.4h-6.9l-26.7-38.8v38.8H432.2z"/>
	<path fill="#C45D40" d="M503.1,89.7V40.3h19.1c3.4,0,5.9,0.2,7.7,0.5c2.5,0.4,4.6,1.2,6.3,2.3c1.7,1.1,3,2.7,4.1,4.8
		c1,2,1.5,4.3,1.5,6.7c0,4.2-1.4,7.8-4.1,10.7c-2.7,2.9-7.7,4.4-14.9,4.4h-13v20.1H503.1z M509.8,63.8H523c4.3,0,7.4-0.8,9.2-2.4
		c1.8-1.6,2.7-3.8,2.7-6.6c0-2.1-0.5-3.8-1.6-5.3c-1.1-1.5-2.5-2.4-4.2-2.9c-1.1-0.3-3.2-0.4-6.3-0.4h-13V63.8z"/>
	<path fill="#C45D40" d="M583.7,40.3h6.7v28.6c0,5-0.6,8.9-1.7,11.8c-1.2,2.9-3.2,5.3-6.2,7.1c-3,1.8-7,2.7-11.9,2.7
		c-4.8,0-8.6-0.8-11.7-2.4c-3-1.6-5.2-3.9-6.5-6.9c-1.3-3-1.9-7.2-1.9-12.4V40.3h6.7v28.5c0,4.3,0.4,7.5,1.2,9.5
		c0.8,2,2.2,3.6,4.2,4.7c2,1.1,4.4,1.7,7.3,1.7c4.9,0,8.5-1.1,10.6-3.3c2.1-2.2,3.2-6.4,3.2-12.6V40.3z"/>
	<path fill="#C45D40" d="M601.3,89.7V40.3h19c3.9,0,7,0.5,9.3,1.5c2.3,1,4.2,2.5,5.5,4.6c1.3,2.1,2,4.3,2,6.5c0,2.1-0.6,4.1-1.8,6
		c-1.2,1.9-3,3.4-5.3,4.5c3.1,0.9,5.4,2.4,7.1,4.5c1.6,2.1,2.5,4.6,2.5,7.5c0,2.3-0.5,4.5-1.5,6.5c-1,2-2.2,3.5-3.7,4.6
		c-1.5,1.1-3.3,1.9-5.6,2.4c-2.2,0.6-5,0.8-8.2,0.8H601.3z M608.1,61.1h11c3,0,5.1-0.2,6.4-0.6c1.7-0.5,3-1.3,3.9-2.5
		c0.9-1.1,1.3-2.6,1.3-4.3c0-1.6-0.4-3.1-1.2-4.3c-0.8-1.2-2-2.1-3.5-2.6c-1.5-0.5-4.1-0.7-7.7-0.7h-10.1V61.1z M608.1,83.9h12.6
		c2.2,0,3.7-0.1,4.6-0.2c1.5-0.3,2.8-0.7,3.9-1.3c1-0.6,1.9-1.5,2.6-2.7c0.7-1.2,1-2.6,1-4.2c0-1.8-0.5-3.4-1.5-4.8
		c-1-1.4-2.3-2.3-4-2.9c-1.7-0.6-4.2-0.8-7.4-0.8h-11.7V83.9z"/>
	<path fill="#C45D40" d="M648.6,89.7V40.3h6.7v43.6h25v5.8H648.6z"/>
	<path fill="#C45D40" d="M689.5,89.7V40.3h6.7v49.4H689.5z"/>
	<path fill="#C45D40" d="M744.2,72.4L751,74c-1.4,5.4-3.9,9.5-7.6,12.3c-3.7,2.8-8.1,4.2-13.4,4.2c-5.5,0-9.9-1.1-13.3-3.3
		c-3.4-2.2-6-5.3-7.8-9.4c-1.8-4.1-2.7-8.5-2.7-13.2c0-5.1,1-9.6,3-13.5c2-3.8,4.9-6.7,8.6-8.7c3.7-2,7.8-3,12.3-3
		c5.1,0,9.3,1.3,12.8,3.8c3.5,2.5,5.9,6.1,7.2,10.6l-6.6,1.5c-1.2-3.6-2.9-6.2-5.1-7.9c-2.2-1.6-5.1-2.5-8.4-2.5
		c-3.9,0-7.2,0.9-9.8,2.7s-4.5,4.3-5.5,7.3c-1.1,3.1-1.6,6.2-1.6,9.5c0,4.2,0.6,7.9,1.9,11c1.3,3.1,3.2,5.5,5.9,7
		c2.7,1.6,5.5,2.3,8.6,2.3c3.8,0,6.9-1.1,9.6-3.2C741.6,79.7,743.3,76.5,744.2,72.4z"/>
	<path fill="#C45D40" d="M778.7,89.7V40.3h6.7v43.6h25v5.8H778.7z"/>
	<path fill="#C45D40" d="M819.5,89.7V40.3h6.7v49.4H819.5z"/>
	<path fill="#C45D40" d="M837.8,89.7V40.3h19c3.9,0,7,0.5,9.3,1.5c2.3,1,4.2,2.5,5.5,4.6c1.3,2.1,2,4.3,2,6.5c0,2.1-0.6,4.1-1.8,6
		c-1.2,1.9-3,3.4-5.3,4.5c3.1,0.9,5.4,2.4,7.1,4.5c1.6,2.1,2.5,4.6,2.5,7.5c0,2.3-0.5,4.5-1.5,6.5c-1,2-2.2,3.5-3.7,4.6
		c-1.5,1.1-3.3,1.9-5.6,2.4c-2.2,0.6-5,0.8-8.2,0.8H837.8z M844.5,61.1h11c3,0,5.1-0.2,6.4-0.6c1.7-0.5,3-1.3,3.9-2.5
		c0.9-1.1,1.3-2.6,1.3-4.3c0-1.6-0.4-3.1-1.2-4.3c-0.8-1.2-2-2.1-3.5-2.6c-1.5-0.5-4.1-0.7-7.7-0.7h-10.1V61.1z M844.5,83.9h12.6
		c2.2,0,3.7-0.1,4.6-0.2c1.5-0.3,2.8-0.7,3.9-1.3c1-0.6,1.9-1.5,2.6-2.7c0.7-1.2,1-2.6,1-4.2c0-1.8-0.5-3.4-1.5-4.8
		c-1-1.4-2.3-2.3-4-2.9c-1.7-0.6-4.2-0.8-7.4-0.8h-11.7V83.9z"/>
	<path fill="#C45D40" d="M885.5,89.7V40.3H908c4.5,0,8,0.4,10.3,1.3c2.4,0.9,4.2,2.5,5.6,4.7c1.4,2.2,2.1,4.7,2.1,7.5
		c0,3.5-1.2,6.5-3.5,8.9c-2.3,2.4-5.9,3.9-10.8,4.6c1.8,0.8,3.1,1.7,4,2.5c2,1.8,3.8,3.9,5.6,6.6l8.8,13.5h-8.4L915,79.4
		c-2-3-3.6-5.2-4.8-6.8s-2.4-2.7-3.4-3.3c-1-0.6-2-1.1-3.1-1.3c-0.8-0.2-2-0.2-3.7-0.2h-7.8v21.9H885.5z M892.2,62.1h14.4
		c3.1,0,5.5-0.3,7.2-0.9c1.7-0.6,3-1.6,3.9-3c0.9-1.4,1.4-2.8,1.4-4.4c0-2.3-0.9-4.3-2.6-5.8c-1.7-1.5-4.5-2.3-8.3-2.3h-16.1V62.1z"
		/>
	<path fill="#C45D40" d="M931,89.7l19.5-49.4h7.2l20.8,49.4h-7.7l-5.9-15h-21.2l-5.6,15H931z M945.6,69.4h17.2l-5.3-13.7
		c-1.6-4.2-2.8-7.6-3.6-10.2c-0.6,3.2-1.6,6.3-2.7,9.4L945.6,69.4z"/>
	<path fill="#C45D40" d="M984,89.7V40.3h22.5c4.5,0,8,0.4,10.3,1.3c2.4,0.9,4.2,2.5,5.6,4.7c1.4,2.2,2.1,4.7,2.1,7.5
		c0,3.5-1.2,6.5-3.5,8.9c-2.3,2.4-5.9,3.9-10.8,4.6c1.8,0.8,3.1,1.7,4,2.5c2,1.8,3.8,3.9,5.6,6.6l8.8,13.5h-8.4l-6.7-10.3
		c-2-3-3.6-5.2-4.8-6.8s-2.4-2.7-3.4-3.3c-1-0.6-2-1.1-3.1-1.3c-0.8-0.2-2-0.2-3.7-0.2h-7.8v21.9H984z M990.7,62.1h14.4
		c3.1,0,5.5-0.3,7.2-0.9c1.7-0.6,3-1.6,3.9-3c0.9-1.4,1.4-2.8,1.4-4.4c0-2.3-0.9-4.3-2.6-5.8c-1.7-1.5-4.5-2.3-8.3-2.3h-16.1V62.1z"
		/>
	<path fill="#C45D40" d="M1048.1,89.7V68.8l-19.6-28.5h8.2l10,14.9c1.8,2.8,3.6,5.6,5.2,8.4c1.5-2.6,3.4-5.5,5.5-8.7l9.8-14.5h7.8
		l-20.3,28.5v20.9H1048.1z"/>
</g>
</svg>
