<?xml version="1.0" encoding="utf-8"?>
<!-- Generator: Adobe Illustrator 18.1.1, SVG Export Plug-In . SVG Version: 6.00 Build 0)  -->
<svg version="1.1" id="圖層_1" xmlns="http://www.w3.org/2000/svg" xmlns:xlink="http://www.w3.org/1999/xlink" x="0px" y="0px"
	 viewBox="336 21 800 88" enable-background="new 336 21 800 88" xml:space="preserve">
<rect x="1054.9" y="67.7" fill="#C45D40" width="81" height="4.4"/>
<rect x="336" y="67.7" fill="#C45D40" width="76.7" height="4.4"/>
<g>
	<path fill="#C45D40" d="M460,72.3l6.2,1.6c-1.3,5.3-3.6,9.3-7,12.1c-3.4,2.8-7.5,4.2-12.4,4.2c-5.1,0-9.2-1.1-12.3-3.2
		c-3.2-2.1-5.6-5.2-7.2-9.3c-1.7-4.1-2.5-8.4-2.5-13.1c0-5.1,0.9-9.5,2.8-13.3c1.9-3.8,4.5-6.6,8-8.6s7.2-2.9,11.4-2.9
		c4.7,0,8.6,1.2,11.8,3.7s5.4,6,6.7,10.5l-6.1,1.5c-1.1-3.5-2.7-6.1-4.7-7.7c-2.1-1.6-4.7-2.4-7.8-2.4c-3.6,0-6.6,0.9-9,2.7
		c-2.4,1.8-4.1,4.2-5.1,7.2c-1,3-1.5,6.1-1.5,9.4c0,4.1,0.6,7.8,1.7,10.9c1.2,3.1,3,5.4,5.4,6.9c2.5,1.5,5.1,2.3,8,2.3
		c3.5,0,6.4-1,8.8-3.1S459.2,76.4,460,72.3z"/>
	<path fill="#C45D40" d="M504.7,40.6h6.2v28.1c0,4.9-0.5,8.8-1.6,11.7s-3,5.2-5.8,7c-2.8,1.8-6.4,2.7-11,2.7c-4.4,0-8-0.8-10.8-2.4
		c-2.8-1.6-4.8-3.8-6-6.8c-1.2-3-1.8-7-1.8-12.2V40.6h6.2v28.1c0,4.2,0.4,7.3,1.1,9.4c0.8,2,2.1,3.5,3.9,4.6
		c1.8,1.1,4.1,1.6,6.8,1.6c4.6,0,7.8-1.1,9.8-3.2c1.9-2.1,2.9-6.3,2.9-12.4V40.6z"/>
	<path fill="#C45D40" d="M521,89.4V40.6h6.2v43h23.1v5.7H521z"/>
	<path fill="#C45D40" d="M564.8,89.4v-43h-15.5v-5.7h37.2v5.7H571v43H564.8z"/>
	<path fill="#C45D40" d="M623.7,40.6h6.2v28.1c0,4.9-0.5,8.8-1.6,11.7s-3,5.2-5.8,7c-2.8,1.8-6.4,2.7-11,2.7c-4.4,0-8-0.8-10.8-2.4
		c-2.8-1.6-4.8-3.8-6-6.8c-1.2-3-1.8-7-1.8-12.2V40.6h6.2v28.1c0,4.2,0.4,7.3,1.1,9.4c0.8,2,2.1,3.5,3.9,4.6
		c1.8,1.1,4.1,1.6,6.8,1.6c4.6,0,7.8-1.1,9.8-3.2c1.9-2.1,2.9-6.3,2.9-12.4V40.6z"/>
	<path fill="#C45D40" d="M640.3,89.4V40.6h20.8c4.2,0,7.4,0.4,9.5,1.3c2.2,0.9,3.9,2.4,5.2,4.6c1.3,2.2,2,4.7,2,7.3
		c0,3.5-1.1,6.4-3.2,8.7c-2.2,2.4-5.5,3.9-10,4.5c1.6,0.8,2.9,1.6,3.7,2.4c1.8,1.7,3.5,3.9,5.2,6.5l8.2,13.3h-7.8l-6.2-10.1
		c-1.8-2.9-3.3-5.2-4.5-6.7c-1.2-1.6-2.2-2.6-3.2-3.3c-0.9-0.6-1.9-1.1-2.8-1.3c-0.7-0.2-1.9-0.2-3.5-0.2h-7.2v21.6H640.3z
		 M646.5,62.1h13.4c2.8,0,5.1-0.3,6.7-0.9c1.6-0.6,2.8-1.6,3.6-2.9s1.2-2.8,1.2-4.4c0-2.3-0.8-4.2-2.4-5.7c-1.6-1.5-4.2-2.2-7.6-2.2
		h-14.9V62.1z"/>
	<path fill="#C45D40" d="M682.4,89.4l18-48.7h6.7l19.2,48.7h-7.1l-5.5-14.8h-19.6L689,89.4H682.4z M696,69.4h15.9L707,55.9
		c-1.5-4.1-2.6-7.5-3.3-10.1c-0.6,3.1-1.4,6.2-2.5,9.3L696,69.4z"/>
	<path fill="#C45D40" d="M731.1,89.4V40.6h6.2v43h23.1v5.7H731.1z"/>
	<path fill="#C45D40" d="M817.1,72.3l6.2,1.6c-1.3,5.3-3.6,9.3-7,12.1c-3.4,2.8-7.5,4.2-12.4,4.2c-5.1,0-9.2-1.1-12.3-3.2
		s-5.6-5.2-7.2-9.3c-1.7-4.1-2.5-8.4-2.5-13.1c0-5.1,0.9-9.5,2.8-13.3c1.9-3.8,4.5-6.6,8-8.6c3.4-2,7.2-2.9,11.4-2.9
		c4.7,0,8.6,1.2,11.8,3.7s5.4,6,6.7,10.5l-6.1,1.5c-1.1-3.5-2.7-6.1-4.7-7.7c-2.1-1.6-4.7-2.4-7.8-2.4c-3.6,0-6.6,0.9-9,2.7
		c-2.4,1.8-4.1,4.2-5.1,7.2c-1,3-1.5,6.1-1.5,9.4c0,4.1,0.6,7.8,1.7,10.9c1.2,3.1,3,5.4,5.4,6.9c2.5,1.5,5.1,2.3,8,2.3
		c3.5,0,6.4-1,8.8-3.1S816.2,76.4,817.1,72.3z"/>
	<path fill="#C45D40" d="M831.1,89.4V40.6H865v5.7h-27.7v14.9h26V67h-26v16.6h28.8v5.7H831.1z"/>
	<path fill="#C45D40" d="M874.6,89.4V40.6h6.4l24.7,38.2V40.6h6v48.7h-6.4l-24.7-38.3v38.3H874.6z"/>
	<path fill="#C45D40" d="M934,89.4v-43h-15.5v-5.7h37.2v5.7h-15.5v43H934z"/>
	<path fill="#C45D40" d="M962.2,89.4V40.6h33.9v5.7h-27.7v14.9h26V67h-26v16.6h28.8v5.7H962.2z"/>
	<path fill="#C45D40" d="M1005.9,89.4V40.6h20.8c4.2,0,7.4,0.4,9.5,1.3c2.2,0.9,3.9,2.4,5.2,4.6c1.3,2.2,2,4.7,2,7.3
		c0,3.5-1.1,6.4-3.2,8.7c-2.2,2.4-5.5,3.9-10,4.5c1.6,0.8,2.9,1.6,3.7,2.4c1.8,1.7,3.5,3.9,5.2,6.5l8.2,13.3h-7.8l-6.2-10.1
		c-1.8-2.9-3.3-5.2-4.5-6.7c-1.2-1.6-2.2-2.6-3.2-3.3c-0.9-0.6-1.9-1.1-2.8-1.3c-0.7-0.2-1.9-0.2-3.5-0.2h-7.2v21.6H1005.9z
		 M1012.1,62.1h13.4c2.8,0,5.1-0.3,6.7-0.9c1.6-0.6,2.8-1.6,3.7-2.9s1.2-2.8,1.2-4.4c0-2.3-0.8-4.2-2.4-5.7
		c-1.6-1.5-4.2-2.2-7.6-2.2h-14.9V62.1z"/>
</g>
</svg>
