<?xml version="1.0" encoding="utf-8"?>
<!-- Generator: Adobe Illustrator 18.1.1, SVG Export Plug-In . SVG Version: 6.00 Build 0)  -->
<svg version="1.1" id="圖層_1" xmlns="http://www.w3.org/2000/svg" xmlns:xlink="http://www.w3.org/1999/xlink" x="0px" y="0px"
	 viewBox="336 21 800 88" enable-background="new 336 21 800 88" xml:space="preserve">
<rect x="932" y="67.5" fill="#C45D40" width="158.7" height="4.1"/>
<rect x="389.7" y="67.5" fill="#C45D40" width="158.7" height="4.1"/>
<g>
	<path fill="#C45D40" d="M590.4,47.6H579v40.9h-6.9V47.6h-11.5v-6.1h29.9V47.6z"/>
	<path fill="#C45D40" d="M635.6,88.5h-7.4L623,75h-17.5l-4.7,13.5h-7.4l17.6-47h6.7L635.6,88.5z M615.2,52.8
		c-0.1-0.3-0.3-0.8-0.4-1.5c-0.2-0.6-0.3-1.3-0.4-2h-0.1c-0.1,0.8-0.3,1.4-0.4,2.1c-0.2,0.6-0.3,1.2-0.5,1.6l-5.5,15.8H621
		L615.2,52.8z"/>
	<path fill="#C45D40" d="M663.9,88.5H642v-47h6.9v41h14.9V88.5z"/>
	<path fill="#C45D40" d="M706.7,88.5h-8.9l-16.2-18.1c-0.3-0.3-0.7-0.7-1.1-1.2c-0.4-0.4-0.8-0.9-1.1-1.3v20.6h-6.9v-47h6.9
		l0.1,20.7c0.5-0.6,1-1.3,1.5-1.9c0.5-0.6,1-1.2,1.3-1.6l14.4-17.2h8.4l-19.9,23.1L706.7,88.5z"/>
	<path fill="#C45D40" d="M754.2,47.6h-11.5v40.9h-6.9V47.6h-11.5v-6.1h29.9V47.6z"/>
	<path fill="#C45D40" d="M803.9,64.4c0,3.8-0.5,7.2-1.5,10.3c-1,3.1-2.4,5.7-4.3,7.8s-4.1,3.8-6.8,4.9s-5.7,1.7-9.1,1.7
		c-3.2,0-6.2-0.6-8.8-1.7c-2.6-1.1-4.9-2.7-6.7-4.8s-3.3-4.6-4.3-7.5c-1-2.9-1.5-6.1-1.5-9.7c0-3.7,0.5-7.1,1.5-10.1
		c1-3,2.4-5.6,4.3-7.8c1.9-2.1,4.2-3.8,6.9-5c2.7-1.2,5.8-1.7,9.3-1.7c3.2,0,6,0.6,8.6,1.7c2.6,1.1,4.8,2.7,6.6,4.8
		c1.8,2.1,3.2,4.5,4.2,7.4C803.4,57.7,803.9,60.9,803.9,64.4z M796.8,65.1c0-2.9-0.3-5.4-0.9-7.7c-0.6-2.3-1.5-4.2-2.7-5.8
		c-1.2-1.6-2.7-2.8-4.4-3.6c-1.8-0.8-3.8-1.3-6.1-1.3c-2.2,0-4.2,0.4-6,1.3c-1.8,0.9-3.3,2.1-4.6,3.7s-2.2,3.5-2.9,5.8
		c-0.7,2.2-1,4.7-1,7.4c0,2.7,0.3,5.2,1,7.4c0.7,2.2,1.6,4.1,2.8,5.7c1.2,1.6,2.7,2.8,4.5,3.7c1.7,0.9,3.7,1.3,5.9,1.3
		c2.3,0,4.3-0.4,6.2-1.2c1.8-0.8,3.3-2,4.6-3.5s2.2-3.4,2.8-5.7C796.5,70.5,796.8,68,796.8,65.1z"/>
	<path fill="#C45D40" d="M876.9,88.5h-6.4l-1.4-30.7c0-0.3,0-0.7-0.1-1.2s0-1,0-1.6c0-0.6,0-1.1,0-1.7s0-1,0-1.4
		c-0.1,0.6-0.3,1.1-0.5,1.8s-0.3,1.2-0.5,1.7c-0.2,0.5-0.3,1-0.4,1.5c-0.1,0.4-0.2,0.7-0.3,0.9l-11.5,30.7h-6.2l-11.7-30.7
		c-0.1-0.2-0.2-0.6-0.4-1c-0.2-0.4-0.3-0.9-0.5-1.5c-0.2-0.5-0.3-1.1-0.5-1.7c-0.2-0.6-0.3-1.2-0.4-1.7c0,0.4,0,0.9,0,1.4
		s0,1.1-0.1,1.7s0,1.1-0.1,1.7c0,0.5,0,1-0.1,1.4L834,88.5h-6.4l3.2-47h7.4l13.1,34.6c0.1,0.3,0.2,0.7,0.4,1.2
		c0.1,0.4,0.3,0.9,0.4,1.4s0.2,1,0.3,1.5c0.1,0.5,0.2,0.9,0.3,1.3c0.1-0.4,0.2-0.8,0.3-1.3c0.1-0.5,0.2-1,0.4-1.5
		c0.1-0.5,0.3-1,0.4-1.5c0.1-0.5,0.3-0.8,0.4-1.2l13-34.5h7.7L876.9,88.5z"/>
	<path fill="#C45D40" d="M911.5,88.5h-22.7v-47h22.7v6.1h-15.8v14.3h15.9v6h-15.9v14.6h15.9V88.5z"/>
</g>
</svg>
