<?xml version="1.0" encoding="utf-8"?>
<!-- Generator: Adobe Illustrator 18.1.1, SVG Export Plug-In . SVG Version: 6.00 Build 0)  -->
<svg version="1.1" id="圖層_1" xmlns="http://www.w3.org/2000/svg" xmlns:xlink="http://www.w3.org/1999/xlink" x="0px" y="0px"
	 viewBox="336 21 800 88" enable-background="new 336 21 800 88" xml:space="preserve">
<rect x="1076.8" y="67.5" fill="#C45D40" width="59.2" height="4.1"/>
<rect x="336" y="67.5" fill="#C45D40" width="53.8" height="4.1"/>
<g>
	<path fill="#C45D40" d="M441.5,64.1c0,3.5-0.7,6.8-2,9.7c-1.3,2.9-3.1,5.4-5.5,7.5c-2.3,2.1-5.1,3.7-8.4,4.8
		c-3.3,1.1-6.8,1.7-10.8,1.7h-11.9V42.2h12.4c4.1,0,7.8,0.5,11,1.4c3.2,0.9,5.9,2.3,8.2,4.1c2.2,1.8,3.9,4.1,5.1,6.9
		C441,57.4,441.5,60.5,441.5,64.1z M434.4,64.2c0-2.8-0.4-5.2-1.3-7.2c-0.9-2-2.1-3.7-3.8-5c-1.6-1.3-3.6-2.3-6-2.9
		c-2.4-0.6-5-0.9-8-0.9H410v33.8h4.7c3,0,5.7-0.4,8.1-1.2c2.4-0.8,4.5-2,6.2-3.6c1.7-1.5,3-3.4,3.9-5.6
		C433.9,69.3,434.4,66.9,434.4,64.2z"/>
	<path fill="#C45D40" d="M487.9,87.7h-7.4l-5.1-13h-17.5l-4.7,13h-7.4l17.6-45.5h6.7L487.9,87.7z M467.5,53.2
		c-0.1-0.3-0.3-0.8-0.4-1.4c-0.2-0.6-0.3-1.3-0.4-2h-0.1c-0.1,0.7-0.3,1.4-0.4,2c-0.2,0.6-0.3,1.1-0.5,1.6L460,68.6h13.3L467.5,53.2
		z"/>
	<path fill="#C45D40" d="M532.8,64.1c0,3.5-0.7,6.8-2,9.7c-1.3,2.9-3.1,5.4-5.5,7.5c-2.3,2.1-5.1,3.7-8.4,4.8
		c-3.3,1.1-6.8,1.7-10.8,1.7h-11.9V42.2h12.4c4.1,0,7.8,0.5,11,1.4c3.2,0.9,5.9,2.3,8.2,4.1c2.2,1.8,3.9,4.1,5.1,6.9
		C532.2,57.4,532.8,60.5,532.8,64.1z M525.7,64.2c0-2.8-0.4-5.2-1.3-7.2c-0.9-2-2.1-3.7-3.8-5c-1.6-1.3-3.6-2.3-6-2.9
		c-2.4-0.6-5-0.9-8-0.9h-5.4v33.8h4.7c3,0,5.7-0.4,8.1-1.2c2.4-0.8,4.5-2,6.2-3.6c1.7-1.5,3-3.4,3.9-5.6
		C525.2,69.3,525.7,66.9,525.7,64.2z"/>
	<path fill="#C45D40" d="M583.7,64.4c0,3.7-0.5,7-1.5,10c-1,3-2.4,5.5-4.3,7.6s-4.1,3.7-6.8,4.8s-5.7,1.7-9.1,1.7
		c-3.2,0-6.2-0.5-8.8-1.6c-2.6-1.1-4.9-2.6-6.7-4.6c-1.9-2-3.3-4.4-4.3-7.2c-1-2.8-1.5-5.9-1.5-9.4c0-3.6,0.5-6.9,1.5-9.8
		c1-2.9,2.4-5.4,4.3-7.5s4.2-3.7,6.9-4.8c2.7-1.1,5.8-1.7,9.3-1.7c3.2,0,6,0.6,8.6,1.7c2.6,1.1,4.8,2.7,6.6,4.7
		c1.8,2,3.2,4.4,4.2,7.2C583.2,57.9,583.7,61,583.7,64.4z M576.6,65.1c0-2.8-0.3-5.2-0.9-7.4c-0.6-2.2-1.5-4-2.7-5.6
		c-1.2-1.5-2.7-2.7-4.4-3.5s-3.8-1.2-6.1-1.2c-2.2,0-4.2,0.4-6,1.3c-1.8,0.9-3.3,2.1-4.6,3.6s-2.2,3.4-2.9,5.6c-0.7,2.2-1,4.6-1,7.2
		c0,2.6,0.3,5,1,7.2c0.7,2.2,1.6,4,2.8,5.5c1.2,1.5,2.7,2.7,4.5,3.6c1.7,0.8,3.7,1.3,5.9,1.3c2.3,0,4.3-0.4,6.2-1.2
		c1.8-0.8,3.3-1.9,4.6-3.4c1.2-1.5,2.2-3.3,2.8-5.5C576.2,70.3,576.6,67.9,576.6,65.1z"/>
	<path fill="#C45D40" d="M633.5,87.7h-6.8l-22.3-29.5c-0.2-0.2-0.4-0.6-0.8-1.1c-0.4-0.6-0.8-1.2-1.2-1.9c-0.4-0.7-0.8-1.3-1.2-2
		c-0.4-0.7-0.7-1.2-0.9-1.5v36.1h-6.4V42.2h7.3l21.2,28.5c0.4,0.5,0.8,1.1,1.2,1.8c0.5,0.7,0.9,1.4,1.4,2.1c0.4,0.7,0.9,1.4,1.2,2
		c0.4,0.6,0.7,1.2,0.9,1.6v-36h6.4V87.7z"/>
	<path fill="#C45D40" d="M650.9,65.2c0,2.5,0.3,4.9,1,7c0.7,2.1,1.7,3.9,3.1,5.5c1.4,1.5,3.1,2.7,5.1,3.6c2,0.9,4.4,1.3,7.1,1.3
		c1.5,0,3.1-0.2,4.7-0.5c1.6-0.3,3-0.8,4.2-1.4v-9.9H666v-5.8h17.1v19.4c-2.4,1.4-5,2.4-7.8,3.1s-5.7,1-8.8,1
		c-3.6,0-6.8-0.6-9.6-1.7s-5.2-2.7-7.1-4.8c-1.9-2-3.4-4.4-4.4-7.2c-1-2.8-1.5-5.8-1.5-9.1c0-3.7,0.6-7.1,1.9-10.1s2.9-5.5,5.1-7.5
		c2.2-2.1,4.7-3.6,7.6-4.7s6.1-1.6,9.5-1.6c2.8,0,5.5,0.4,8.1,1.1s5,1.7,7.1,3.1l-0.1,7c-1.1-0.8-2.2-1.5-3.5-2.2
		c-1.2-0.6-2.5-1.2-3.8-1.7s-2.6-0.8-4-1.1c-1.3-0.3-2.6-0.4-3.9-0.4c-2.6,0-5,0.4-7,1.3c-2.1,0.9-3.9,2.1-5.3,3.6
		c-1.5,1.6-2.6,3.4-3.4,5.6S650.9,62.6,650.9,65.2z"/>
	<path fill="#C45D40" d="M745.8,87.7h-7.4l-5.1-13h-17.5l-4.7,13h-7.4l17.6-45.5h6.7L745.8,87.7z M725.5,53.2
		c-0.1-0.3-0.3-0.8-0.4-1.4c-0.2-0.6-0.3-1.3-0.4-2h-0.1c-0.1,0.7-0.3,1.4-0.4,2c-0.2,0.6-0.3,1.1-0.5,1.6L718,68.6h13.3L725.5,53.2
		z"/>
	<path fill="#C45D40" d="M783.2,87.7H775l-12.7-20.1h-3.2v20.1h-6.9V42.2h10.3c2.4,0,4.7,0.2,6.8,0.6s3.9,1,5.4,2
		c1.5,0.9,2.7,2.2,3.6,3.7c0.9,1.5,1.3,3.4,1.3,5.7c0,1.7-0.3,3.2-0.9,4.6c-0.6,1.4-1.4,2.6-2.4,3.6c-1,1-2.1,1.9-3.4,2.6
		c-1.3,0.7-2.6,1.2-3.9,1.5L783.2,87.7z M772.5,54.4c0-2.2-0.8-3.8-2.3-4.8c-1.6-1-4-1.5-7.2-1.5h-3.7V62h3.4c3.2,0,5.6-0.7,7.3-2
		C771.6,58.7,772.5,56.8,772.5,54.4z"/>
	<path fill="#C45D40" d="M816.9,48.1h-11.5v39.6h-6.9V48.1H787v-5.9h29.9V48.1z"/>
	<path fill="#C45D40" d="M845.7,65.5c0,2.6,0.4,4.9,1.1,7c0.7,2.1,1.8,3.9,3.1,5.4c1.3,1.5,3,2.7,4.9,3.5c1.9,0.8,4,1.2,6.3,1.2
		c2.1,0,4.2-0.3,6.3-0.8s4.1-1.4,6-2.4v6.2c-1.8,0.9-3.7,1.6-5.9,2.1s-4.6,0.7-7.1,0.7c-3.2,0-6.2-0.6-8.8-1.7s-5-2.7-6.9-4.7
		c-1.9-2-3.4-4.4-4.5-7.2c-1.1-2.8-1.6-5.9-1.6-9.3c0-3.5,0.6-6.7,1.7-9.6s2.7-5.4,4.8-7.5s4.4-3.8,7.2-4.9c2.8-1.2,5.8-1.8,9.1-1.8
		c1.1,0,2.2,0.1,3.3,0.2c1.1,0.1,2.2,0.3,3.3,0.5c1.1,0.2,2.1,0.5,3.1,0.8c1,0.3,1.9,0.6,2.7,1v6.2c-0.8-0.4-1.7-0.7-2.7-1.1
		s-2.1-0.7-3.1-0.9c-1.1-0.3-2.2-0.5-3.3-0.7c-1.1-0.2-2.2-0.2-3.3-0.2c-2.2,0-4.2,0.4-6.1,1.3c-1.9,0.9-3.5,2.1-4.9,3.6
		c-1.4,1.6-2.5,3.5-3.3,5.7C846.1,60.2,845.7,62.7,845.7,65.5z"/>
	<path fill="#C45D40" d="M906.2,87.7h-22.7V42.2h22.7v5.9h-15.8V62h15.9v5.8h-15.9v14.1h15.9V87.7z"/>
	<path fill="#C45D40" d="M956.6,87.7h-6.8l-22.3-29.5c-0.2-0.2-0.4-0.6-0.8-1.1c-0.4-0.6-0.8-1.2-1.2-1.9c-0.4-0.7-0.8-1.3-1.2-2
		c-0.4-0.7-0.7-1.2-0.9-1.5v36.1H917V42.2h7.3l21.2,28.5c0.4,0.5,0.8,1.1,1.2,1.8c0.5,0.7,0.9,1.4,1.4,2.1c0.4,0.7,0.9,1.4,1.2,2
		c0.4,0.6,0.7,1.2,0.9,1.6v-36h6.4V87.7z"/>
	<path fill="#C45D40" d="M995.5,48.1H984v39.6h-6.9V48.1h-11.5v-5.9h29.9V48.1z"/>
	<path fill="#C45D40" d="M1027.2,87.7h-22.7V42.2h22.7v5.9h-15.8V62h15.9v5.8h-15.9v14.1h15.9V87.7z"/>
	<path fill="#C45D40" d="M1068.9,87.7h-8.2l-12.7-20.1h-3.2v20.1h-6.9V42.2h10.3c2.4,0,4.7,0.2,6.8,0.6s3.9,1,5.4,2
		c1.5,0.9,2.7,2.2,3.6,3.7c0.9,1.5,1.3,3.4,1.3,5.7c0,1.7-0.3,3.2-0.9,4.6c-0.6,1.4-1.4,2.6-2.4,3.6c-1,1-2.1,1.9-3.4,2.6
		c-1.3,0.7-2.6,1.2-3.9,1.5L1068.9,87.7z M1058.2,54.4c0-2.2-0.8-3.8-2.3-4.8c-1.6-1-4-1.5-7.2-1.5h-3.7V62h3.4c3.2,0,5.6-0.7,7.3-2
		C1057.4,58.7,1058.2,56.8,1058.2,54.4z"/>
</g>
</svg>
