<?xml version="1.0" encoding="utf-8"?>
<!-- Generator: Adobe Illustrator 17.0.0, SVG Export Plug-In . SVG Version: 6.00 Build 0)  -->
<!DOCTYPE svg PUBLIC "-//W3C//DTD SVG 1.1//EN" "http://www.w3.org/Graphics/SVG/1.1/DTD/svg11.dtd">
<svg version="1.1" id="圖層_1" xmlns="http://www.w3.org/2000/svg" xmlns:xlink="http://www.w3.org/1999/xlink" x="0px" y="0px"
	 width="800px" height="88px" viewBox="0 0 800 88" enable-background="new 0 0 800 88" xml:space="preserve">
<g>
	<g>
		<path fill="#C45D40" d="M179.178,62.17c1.749,0,3.34-0.239,4.851-0.795c1.431-0.557,2.704-1.352,3.737-2.465
			c1.034-1.034,1.829-2.386,2.386-4.055c0.557-1.59,0.875-3.499,0.875-5.725V20.423h7.077v27.831c0,3.34-0.477,6.202-1.352,8.667
			c-0.875,2.465-2.227,4.533-3.896,6.202c-1.67,1.67-3.737,2.863-6.202,3.737c-2.386,0.795-5.169,1.272-8.19,1.272
			c-2.863,0-5.487-0.398-7.793-1.272c-2.306-0.875-4.294-1.988-5.884-3.658c-1.67-1.59-2.863-3.578-3.737-5.964
			c-0.875-2.386-1.352-5.169-1.352-8.349V20.343h7.157v28.308c0,2.227,0.318,4.214,0.875,5.884s1.431,3.101,2.465,4.214
			c1.113,1.113,2.386,1.988,3.896,2.545C175.6,61.931,177.27,62.17,179.178,62.17z"/>
		<path fill="#C45D40" d="M251.46,67.418h-6.998l-22.981-30.455c-0.159-0.159-0.477-0.557-0.875-1.193
			c-0.398-0.557-0.795-1.272-1.272-1.908c-0.477-0.716-0.875-1.352-1.272-2.067c-0.398-0.716-0.716-1.193-0.875-1.59v37.214h-6.6
			V20.502h7.475l21.867,29.422c0.398,0.557,0.795,1.113,1.272,1.829c0.477,0.716,0.954,1.431,1.431,2.147s0.875,1.431,1.272,2.067
			c0.398,0.716,0.716,1.193,0.954,1.59V20.423h6.6C251.46,20.423,251.46,67.418,251.46,67.418z"/>
		<path fill="#C45D40" d="M269.352,44.437c0,2.624,0.398,5.01,1.113,7.157c0.716,2.147,1.829,4.055,3.181,5.566
			c1.352,1.511,3.022,2.704,5.01,3.578c1.988,0.875,4.135,1.272,6.441,1.272c2.227,0,4.374-0.318,6.52-0.875
			c2.147-0.557,4.214-1.431,6.202-2.465v6.441c-1.829,0.954-3.817,1.749-6.123,2.227c-2.227,0.477-4.692,0.716-7.395,0.716
			c-3.34,0-6.361-0.557-9.145-1.749c-2.783-1.193-5.169-2.783-7.157-4.851c-1.988-2.067-3.578-4.533-4.612-7.475
			c-1.113-2.863-1.67-6.043-1.67-9.542c0-3.578,0.557-6.839,1.749-9.86c1.193-3.022,2.783-5.646,4.93-7.793
			c2.147-2.147,4.533-3.896,7.475-5.089c2.863-1.193,5.964-1.829,9.304-1.829c1.113,0,2.306,0.08,3.419,0.239
			c1.113,0.159,2.306,0.318,3.419,0.557s2.147,0.477,3.181,0.795c0.954,0.318,1.908,0.636,2.704,1.034v6.361
			c-0.875-0.398-1.749-0.716-2.863-1.113s-2.147-0.716-3.26-0.954c-1.113-0.239-2.227-0.477-3.419-0.716
			c-1.193-0.239-2.306-0.239-3.34-0.239c-2.306,0-4.373,0.477-6.361,1.352c-1.908,0.875-3.658,2.147-5.089,3.737
			c-1.431,1.59-2.545,3.578-3.34,5.884C269.431,39.11,269.352,41.575,269.352,44.437z"/>
		<path fill="#C45D40" d="M330.899,67.418h-22.504V20.502h7.157v40.872h15.347C330.899,61.375,330.899,67.418,330.899,67.418z"/>
		<path fill="#C45D40" d="M363.263,67.418h-23.458V20.502h23.378v6.123h-16.301v14.234h16.381v6.043h-16.381v14.552h16.381
			C363.263,61.454,363.263,67.418,363.263,67.418z"/>
		<path fill="#C45D40" d="M429.581,67.418h-7.157V46.505h-25.525v20.834h-7.157V20.423h7.157v20.039h25.525V20.423h7.157
			C429.581,20.423,429.581,67.418,429.581,67.418z"/>
		<path fill="#C45D40" d="M468.465,54.298c0,1.908-0.318,3.737-1.034,5.407c-0.716,1.67-1.67,3.181-2.942,4.373
			c-1.272,1.272-2.863,2.227-4.851,2.942c-1.908,0.716-4.135,1.034-6.68,1.034c-1.193,0-2.465-0.08-3.658-0.239
			s-2.386-0.398-3.499-0.716c-1.113-0.318-2.067-0.636-2.942-1.034c-0.954-0.398-1.749-0.795-2.465-1.272v-7.236
			c0.795,0.557,1.67,1.113,2.704,1.67c1.034,0.557,2.147,1.034,3.34,1.431c1.193,0.398,2.306,0.795,3.419,1.034
			c1.113,0.239,2.227,0.398,3.101,0.398c1.431,0,2.624-0.159,3.658-0.477c1.034-0.398,1.908-0.875,2.624-1.511
			s1.272-1.431,1.59-2.306c0.398-0.954,0.557-1.908,0.557-3.022c0-1.272-0.239-2.306-0.716-3.101s-1.113-1.59-1.908-2.227
			c-0.795-0.636-1.749-1.193-2.942-1.749c-1.193-0.557-2.465-1.034-3.896-1.59c-1.988-0.795-3.737-1.511-5.248-2.306
			c-1.511-0.795-2.783-1.67-3.817-2.704c-1.034-0.954-1.829-2.147-2.386-3.499c-0.477-1.352-0.716-2.942-0.716-4.692
			c0-1.988,0.398-3.817,1.193-5.407c0.795-1.59,1.908-2.942,3.26-4.055c1.431-1.113,3.022-1.988,4.851-2.624
			s3.817-0.954,5.884-0.954c2.227,0,4.294,0.239,6.123,0.636c1.829,0.398,3.499,0.954,5.01,1.59v6.52
			c-0.716-0.318-1.511-0.636-2.465-0.954c-0.954-0.318-1.908-0.716-2.942-0.954c-1.034-0.239-2.067-0.477-3.022-0.636
			c-1.034-0.08-1.988-0.159-2.942-0.159c-1.272,0-2.386,0.159-3.419,0.477c-0.954,0.318-1.829,0.795-2.545,1.352
			c-0.716,0.557-1.193,1.272-1.59,2.067c-0.398,0.795-0.477,1.67-0.477,2.704c0,1.113,0.239,2.067,0.716,2.783
			c0.477,0.716,1.113,1.511,1.988,2.067c0.875,0.636,1.829,1.193,3.101,1.67c1.193,0.557,2.545,1.113,3.976,1.67
			c1.908,0.716,3.578,1.511,5.089,2.306s2.704,1.749,3.737,2.783c1.034,1.034,1.829,2.227,2.386,3.658
			C468.227,50.878,468.465,52.469,468.465,54.298z"/>
		<path fill="#C45D40" d="M485.402,67.418h-7.157V20.502h7.157V67.418z"/>
		<path fill="#C45D40" d="M517.448,62.17c1.749,0,3.34-0.239,4.771-0.795c1.431-0.557,2.704-1.352,3.737-2.465
			c1.034-1.034,1.829-2.386,2.386-4.055c0.557-1.59,0.875-3.499,0.875-5.725V20.423h7.077v27.831c0,3.34-0.477,6.202-1.352,8.667
			c-0.875,2.465-2.227,4.533-3.896,6.202c-1.749,1.67-3.737,2.863-6.202,3.737c-2.386,0.795-5.089,1.272-8.111,1.272
			c-2.863,0-5.487-0.398-7.793-1.272c-2.306-0.795-4.294-1.988-5.884-3.658c-1.67-1.59-2.863-3.578-3.737-5.964
			c-0.875-2.386-1.352-5.169-1.352-8.349V20.343h7.157v28.308c0,2.227,0.318,4.214,0.875,5.884c0.557,1.67,1.431,3.101,2.465,4.214
			c1.113,1.113,2.386,1.988,3.896,2.545C513.87,61.931,515.54,62.17,517.448,62.17z"/>
		<path fill="#C45D40" d="M589.651,67.418h-6.998l-22.901-30.455c-0.159-0.159-0.398-0.557-0.875-1.193
			c-0.398-0.557-0.795-1.272-1.272-1.908c-0.477-0.716-0.875-1.352-1.272-2.067s-0.716-1.193-0.954-1.59v37.214h-6.6V20.502h7.554
			L578.2,49.924c0.318,0.557,0.795,1.113,1.272,1.829c0.477,0.716,0.954,1.431,1.431,2.147s0.875,1.431,1.272,2.067
			c0.398,0.716,0.716,1.193,0.954,1.59V20.423h6.6v46.995H589.651z"/>
		<path fill="#C45D40" d="M607.622,44.119c0,2.624,0.318,5.01,1.034,7.157c0.716,2.227,1.749,4.055,3.181,5.646
			c1.431,1.59,3.181,2.863,5.248,3.737c2.147,0.875,4.533,1.352,7.395,1.352c1.59,0,3.181-0.159,4.771-0.477
			c1.59-0.318,3.101-0.875,4.294-1.431V49.845h-10.496v-6.043h17.573V63.76c-2.465,1.431-5.169,2.465-8.031,3.181
			c-2.863,0.716-5.884,1.034-9.065,1.034c-3.658,0-6.998-0.557-9.86-1.749s-5.328-2.783-7.395-4.93
			c-1.988-2.067-3.499-4.533-4.533-7.475c-1.034-2.863-1.59-6.043-1.59-9.383c0-3.896,0.636-7.316,1.908-10.337
			c1.272-3.022,3.022-5.646,5.248-7.713s4.851-3.737,7.872-4.851s6.282-1.67,9.781-1.67c2.863,0,5.725,0.398,8.429,1.113
			s5.089,1.749,7.316,3.181l-0.08,7.236c-1.113-0.795-2.306-1.59-3.578-2.227c-1.272-0.636-2.624-1.272-3.976-1.67
			c-1.352-0.477-2.704-0.875-4.135-1.113c-1.352-0.239-2.704-0.398-3.976-0.398c-2.624,0-5.089,0.477-7.236,1.352
			c-2.147,0.875-3.976,2.147-5.487,3.737c-1.511,1.59-2.704,3.499-3.499,5.805C608.019,38.951,607.622,41.416,607.622,44.119z"/>
	</g>
	<rect x="655.969" y="46.505" fill="#C45D40" width="140.031" height="4.055"/>
	<rect x="4" y="46.743" fill="#C45D40" width="140.031" height="4.055"/>
</g>
</svg>
