<?xml version="1.0" encoding="utf-8"?>
<!-- Generator: Adobe Illustrator 17.0.0, SVG Export Plug-In . SVG Version: 6.00 Build 0)  -->
<!DOCTYPE svg PUBLIC "-//W3C//DTD SVG 1.1//EN" "http://www.w3.org/Graphics/SVG/1.1/DTD/svg11.dtd">
<svg version="1.1" id="圖層_1" xmlns="http://www.w3.org/2000/svg" xmlns:xlink="http://www.w3.org/1999/xlink" x="0px" y="0px"
	 width="800px" height="88px" viewBox="0 0 800 88" enable-background="new 0 0 800 88" xml:space="preserve">
<g>
	<rect x="606.807" y="46.686" fill="#C45D40" width="188.243" height="4.424"/>
	<rect x="4.95" y="46.686" fill="#C45D40" width="188.243" height="4.424"/>
	<g>
		<path fill="#C45D40" d="M252.755,67.461h-7.662l-5.214-13.429h-18.011l-4.898,13.429h-7.662l18.169-46.765h6.872L252.755,67.461z
			 M231.821,31.914c-0.158-0.316-0.237-0.79-0.474-1.501c-0.158-0.632-0.316-1.343-0.474-1.975h-0.158
			c-0.158,0.711-0.237,1.422-0.474,2.054c-0.158,0.632-0.395,1.185-0.553,1.58l-5.688,15.72h13.666L231.821,31.914z"/>
		<path fill="#C45D40" d="M264.446,44.553c0,2.607,0.395,5.056,1.106,7.188c0.79,2.133,1.817,4.029,3.239,5.53
			c1.422,1.58,3.081,2.765,4.977,3.555c1.975,0.869,4.108,1.264,6.478,1.264c2.212,0,4.345-0.316,6.557-0.869
			c2.133-0.553,4.187-1.422,6.241-2.528v6.399c-1.817,0.948-3.871,1.659-6.083,2.212c-2.212,0.553-4.661,0.711-7.346,0.711
			c-3.318,0-6.32-0.553-9.084-1.738c-2.765-1.185-5.135-2.765-7.109-4.819s-3.555-4.582-4.661-7.425
			c-1.106-2.844-1.659-6.083-1.659-9.558c0-3.555,0.553-6.872,1.738-9.874s2.844-5.609,4.898-7.741
			c2.054-2.133,4.582-3.871,7.425-5.056c2.844-1.185,5.925-1.817,9.321-1.817c1.106,0,2.291,0.079,3.397,0.237
			c1.185,0.158,2.291,0.316,3.397,0.553c1.106,0.237,2.133,0.474,3.16,0.79c1.027,0.316,1.896,0.632,2.765,1.027v6.399
			c-0.869-0.395-1.817-0.711-2.844-1.106c-1.027-0.395-2.133-0.711-3.239-0.948c-1.106-0.316-2.212-0.474-3.397-0.632
			c-1.185-0.158-2.291-0.237-3.397-0.237c-2.291,0-4.345,0.474-6.32,1.343s-3.634,2.133-5.056,3.713
			c-1.422,1.58-2.528,3.555-3.397,5.846C264.841,39.181,264.446,41.788,264.446,44.553z"/>
		<path fill="#C45D40" d="M330.485,26.779h-11.849V67.54h-7.109V26.779h-11.849v-6.083h30.808V26.779z"/>
		<path fill="#C45D40" d="M360.029,44.553c0,2.607,0.395,5.056,1.106,7.188c0.79,2.133,1.817,4.029,3.239,5.53
			c1.422,1.58,3.081,2.765,4.977,3.555c1.975,0.869,4.108,1.264,6.478,1.264c2.212,0,4.345-0.316,6.557-0.869
			c2.133-0.553,4.187-1.422,6.241-2.528v6.399c-1.817,0.948-3.871,1.659-6.083,2.212c-2.212,0.553-4.661,0.711-7.346,0.711
			c-3.318,0-6.32-0.553-9.084-1.738s-5.135-2.765-7.109-4.819s-3.555-4.582-4.661-7.425c-1.106-2.844-1.659-6.083-1.659-9.558
			c0-3.555,0.553-6.872,1.738-9.874c1.185-3.002,2.844-5.609,4.898-7.741c2.054-2.133,4.582-3.871,7.425-5.056
			c2.844-1.185,5.925-1.817,9.321-1.817c1.106,0,2.291,0.079,3.397,0.237c1.185,0.158,2.291,0.316,3.397,0.553
			s2.133,0.474,3.16,0.79c1.027,0.316,1.896,0.632,2.765,1.027v6.399c-0.869-0.395-1.817-0.711-2.844-1.106
			c-1.027-0.395-2.133-0.711-3.239-0.948c-1.106-0.316-2.212-0.474-3.397-0.632c-1.185-0.158-2.291-0.237-3.397-0.237
			c-2.291,0-4.345,0.474-6.32,1.343s-3.634,2.133-5.056,3.713c-1.422,1.58-2.528,3.555-3.397,5.846
			C360.503,39.181,360.029,41.788,360.029,44.553z"/>
		<path fill="#C45D40" d="M422.355,67.461h-23.382V20.697h23.303v6.083h-16.273v14.219h16.352v6.004h-16.352v14.535h16.352
			C422.355,61.537,422.355,67.461,422.355,67.461z"/>
		<path fill="#C45D40" d="M474.176,67.461h-6.951l-22.908-30.413c-0.158-0.158-0.474-0.553-0.869-1.185
			c-0.395-0.553-0.79-1.264-1.264-1.896c-0.474-0.711-0.869-1.422-1.264-2.054c-0.395-0.711-0.711-1.185-0.869-1.58v37.127h-6.557
			V20.697h7.504l21.881,29.307c0.395,0.474,0.79,1.106,1.264,1.817s0.948,1.422,1.422,2.133s0.869,1.422,1.264,2.133
			c0.395,0.632,0.711,1.185,0.948,1.58V20.618h6.557v46.844H474.176z"/>
		<path fill="#C45D40" d="M514.226,26.779h-11.77V67.54h-7.109V26.779h-11.849v-6.083h30.729V26.779z"/>
		<path fill="#C45D40" d="M546.85,67.461h-23.382V20.697h23.303v6.083h-16.273v14.219h16.352v6.004h-16.352v14.535h16.352
			C546.85,61.537,546.85,67.461,546.85,67.461z"/>
		<path fill="#C45D40" d="M589.744,67.461h-8.373l-13.034-20.617h-3.239v20.617h-7.109V20.697h10.585
			c2.449,0,4.819,0.237,6.952,0.632c2.133,0.395,4.029,1.106,5.609,2.054c1.58,0.948,2.844,2.212,3.713,3.792
			c0.869,1.58,1.343,3.555,1.343,5.925c0,1.738-0.316,3.318-0.948,4.74s-1.422,2.686-2.449,3.713s-2.133,1.975-3.476,2.686
			c-1.264,0.711-2.607,1.185-4.029,1.501L589.744,67.461z M578.685,33.178c0-2.212-0.79-3.871-2.37-4.898s-4.108-1.501-7.425-1.501
			h-3.792v14.219h3.476c3.318,0,5.767-0.711,7.504-2.054C577.816,37.601,578.685,35.627,578.685,33.178z"/>
	</g>
</g>
</svg>
