<?xml version="1.0" encoding="utf-8"?>
<!-- Generator: Adobe Illustrator 17.0.0, SVG Export Plug-In . SVG Version: 6.00 Build 0)  -->
<!DOCTYPE svg PUBLIC "-//W3C//DTD SVG 1.1//EN" "http://www.w3.org/Graphics/SVG/1.1/DTD/svg11.dtd">
<svg version="1.1" id="圖層_1" xmlns="http://www.w3.org/2000/svg" xmlns:xlink="http://www.w3.org/1999/xlink" x="0px" y="0px"
	 width="808px" height="500px" viewBox="0 0 808 500" enable-background="new 0 0 808 500" xml:space="preserve">
<g>
	<g>
		<g>
			<path fill="#FFFFFF" d="M403.643,369.544c-9.359,0-18.235-1.089-26.381-3.236c-17.182-4.496-38.792-15.702-44.144-43.557
				c-2.437-12.674-2.019-26.8,1.314-44.454c0.926-4.933,2.546-10.087,4.113-15.072c2.428-7.797,5.181-16.64,4.877-24.448
				l-0.276-6.821c-0.062-1.043-0.126-2.104-0.209-3.146l-0.34-4.26l3.514,2.433c0.735,0.509,1.505,0.891,2.227,1.104
				c2.741,0.82,5.653,0.213,8.244-1.66l0.088-0.061c0.253-0.164,0.517-0.375,0.805-0.645c3.466-3.011,5.383-7.5,4.942-11.489
				c-0.014-0.134-0.019-0.224-0.036-0.306l-0.048-0.187c-0.07-0.347-0.232-0.84-0.362-1.236c-1.34-4.081-3.379-4.702-5.96-5.487
				c-0.353-0.107-0.702-0.214-1.045-0.328c-0.897-0.297-2.285-0.461-3.909-0.461c-2.214,0-4.211,0.304-5.04,0.605l-0.108,0.036
				c-0.197,0.072-1.611,0.672-1.922,0.817l-2.729,1.273l-0.152-3.007c-0.484-9.587,0.049-17.292,1.677-24.247
				c3.201-13.669,9.025-26.595,16.843-37.38l0.133-0.196c0.168-0.248,0.34-0.5,0.525-0.74
				c11.165-14.979,25.929-23.242,41.555-23.242l0.424,0.002c17.557,0.17,36.724,8.153,47.695,19.865
				c1.48,1.605,2.747,3.089,3.885,4.548c7.573,9.719,13.037,22.059,16.708,37.726c4.367,18.647,2.665,36.167-4.924,50.667
				l-6.081,11.608c-0.048,0.315-0.085,1.712,1.449,6.534c0.42,1.321,0.863,2.621,1.248,3.752c0.511,1.499,0.913,2.682,1.084,3.376
				l0.085,0.338c0.851,3.383,1.729,6.881,2.429,10.4c0.847,4.104,1.369,7.736,1.595,11.088c0.067,0.968,0.135,1.965,0.181,2.962
				c0.841,14.512,0.454,35.554-6.164,53.255c-0.623,1.702-1.374,3.489-2.291,5.451c-6.921,14.734-22.563,24.844-41.848,27.047
				C412.771,369.284,408.173,369.544,403.643,369.544z M347.206,231.98l0.064,1.342l0.201,5.3c0.331,8.502-2.533,17.7-5.059,25.814
				c-1.533,4.876-3.116,9.913-3.999,14.611c-3.235,17.138-3.653,30.781-1.316,42.939c4.954,25.78,25.135,36.2,41.193,40.401
				c7.813,2.06,16.341,3.104,25.352,3.104c4.378,0,8.823-0.252,13.212-0.75c17.875-2.042,32.319-11.291,38.636-24.739
				c0.865-1.852,1.572-3.534,2.159-5.139c6.376-17.052,6.737-37.492,5.918-51.638c-0.045-0.988-0.11-1.952-0.177-2.894
				c-0.213-3.172-0.711-6.625-1.522-10.562c-0.683-3.434-1.55-6.881-2.388-10.216l-0.089-0.35c-0.13-0.533-0.546-1.753-0.986-3.046
				c-0.393-1.155-0.845-2.481-1.273-3.83c-1.957-6.151-1.903-8.271-1.22-9.562l6.124-11.692c7.13-13.624,8.71-30.174,4.567-47.86
				c-3.534-15.085-8.754-26.913-15.958-36.159c-1.068-1.37-2.265-2.77-3.657-4.281c-10.252-10.943-28.246-18.411-44.765-18.571
				l-0.385-0.001c-14.314,0-27.924,7.684-38.323,21.635c-0.154,0.201-0.279,0.387-0.402,0.569l-0.18,0.264
				c-7.53,10.39-13.125,22.813-16.204,35.962c-1.376,5.879-1.922,12.376-1.69,20.262c1.464-0.438,3.757-0.715,6.018-0.715
				c1.447,0,3.521,0.116,5.184,0.667c0.312,0.104,0.63,0.2,0.951,0.298c2.8,0.853,6.634,2.02,8.63,8.099
				c0.189,0.574,0.355,1.094,0.464,1.603c0.101,0.354,0.134,0.687,0.159,0.938c0.583,5.281-1.872,11.146-6.256,14.953
				c-0.397,0.374-0.831,0.72-1.275,1.011C355.323,232.324,351.095,233.138,347.206,231.98z"/>
		</g>
		<g>
			<path fill="#FFFFFF" d="M469.692,241.752c-1.404,1.627-2.874,3.142-4.434,4.523c-1.225,1.07-3.632,3.365-6.194,5.437
				c-1.069-3.365-1.961-6.863-1.359-7.999l3.565-6.818l2.562-4.88c7.999-15.286,8.623-32.71,4.746-49.266
				c-3.075-13.124-7.999-26.248-16.333-36.944c1.248-0.49,2.473-0.824,3.677-0.958c2.139-0.267,4.189,0.067,6.128,1.225
				C491.952,164.099,490.86,216.796,469.692,241.752z"/>
			<path fill="#FFFFFF" d="M458.031,255.153l-0.899-2.827c-1.956-6.151-1.902-8.271-1.219-9.562l6.124-11.692
				c7.13-13.624,8.71-30.175,4.566-47.861c-3.533-15.086-8.753-26.914-15.957-36.16l-1.666-2.139l2.522-0.993
				c1.479-0.582,2.851-0.938,4.194-1.087c0.517-0.064,1.059-0.099,1.583-0.099c2.078,0,4.033,0.538,5.809,1.6
				c12.054,7.266,20.221,20.617,23.003,37.598c3.583,21.866-2.387,46.433-14.854,61.132c-1.518,1.758-3.073,3.345-4.636,4.729
				c-0.363,0.317-0.814,0.727-1.34,1.205c-1.295,1.177-3.068,2.79-4.924,4.291L458.031,255.153z M459.546,244.563
				c-0.036,0.239-0.066,1.097,0.586,3.591c0.894-0.783,1.718-1.533,2.403-2.156c0.55-0.5,1.022-0.929,1.39-1.25
				c1.417-1.254,2.844-2.711,4.232-4.32c11.732-13.832,17.337-37.082,13.935-57.842c-2.587-15.788-10.076-28.139-21.089-34.778
				c-1.451-0.866-3.021-1.174-4.831-0.95c-0.184,0.021-0.368,0.047-0.556,0.079c6.66,9.332,11.557,20.932,14.934,35.35
				c4.368,18.647,2.666,36.168-4.923,50.668L459.546,244.563z"/>
		</g>
		<g>
			<path fill="#FFFFFF" d="M463.697,286.041l-0.13-2.84c-0.044-0.964-0.109-1.928-0.176-2.87c-0.213-3.172-0.711-6.625-1.522-10.562
				c-0.683-3.434-1.55-6.883-2.389-10.218l-0.088-0.348c-0.13-0.533-0.546-1.754-0.986-3.047c-0.393-1.154-0.845-2.48-1.273-3.829
				l-0.421-1.319l1.077-0.871c1.765-1.427,3.488-2.994,4.746-4.138c0.55-0.5,1.022-0.929,1.39-1.25
				c1.417-1.254,2.844-2.711,4.232-4.32l1.375-1.594l1.54,1.435c0.476,0.443,0.842,0.827,1.151,1.209
				c8.298,9.65,5.9,24.231,2.422,34.756c-0.875,2.651-2.105,4.636-3.763,6.067c-1.433,1.35-3.185,2.15-4.543,2.689L463.697,286.041z
				 M461.417,252.397c0.285,0.864,0.568,1.696,0.826,2.453c0.511,1.499,0.913,2.683,1.084,3.376l0.084,0.336
				c0.851,3.384,1.73,6.882,2.43,10.402c0.834,4.042,1.354,7.625,1.584,10.935c0.271-0.192,0.516-0.393,0.744-0.607
				c1.166-1.009,1.98-2.366,2.628-4.329c3.062-9.265,5.289-21.895-1.107-30.18c-1.019,1.083-2.052,2.091-3.088,3.009
				c-0.363,0.317-0.814,0.727-1.34,1.205C464.221,249.944,462.87,251.172,461.417,252.397z"/>
		</g>
		<g>
			<path fill="#FFFFFF" d="M463.567,283.201c-0.044-0.964-0.109-1.928-0.176-2.87c-0.512-7.309-2.364-14.649-3.998-21.126
				c-0.131-0.534-0.547-1.755-0.987-3.048c-0.393-1.154-0.845-2.48-1.273-3.829l-0.421-1.319l1.077-0.871
				c1.765-1.427,3.488-2.994,4.746-4.138c0.55-0.5,1.022-0.929,1.39-1.25c1.417-1.254,2.844-2.711,4.232-4.32l3.068,2.647
				c-1.506,1.746-3.062,3.333-4.624,4.716c-0.363,0.317-0.814,0.727-1.34,1.205c-1.041,0.947-2.392,2.174-3.845,3.399
				c0.285,0.864,0.568,1.696,0.826,2.453c0.511,1.499,0.913,2.683,1.084,3.376c1.672,6.627,3.57,14.153,4.107,21.821
				c0.068,0.974,0.136,1.971,0.182,2.968L463.567,283.201z"/>
		</g>
		<g>
			<path fill="#FFFFFF" d="M364.676,220.063l-1.542-3.748c22.768-9.366,35.056-3.847,40.354,0.274L401,219.789
				C389.873,211.13,371.891,217.097,364.676,220.063z"/>
		</g>
		<g>
			<path fill="#FFFFFF" d="M416.19,231.238c-6.507,0-12.496-3.427-14.902-8.528c-1.285-2.724-2.615-8.295,2.912-15.001
				c3.099-3.765,7.523-5.839,12.458-5.839c7.253,0,14.313,4.498,16.421,10.463c1.067,3.022,1.759,8.979-5.609,14.931
				C424.253,229.863,420.352,231.238,416.19,231.238z M416.658,205.922c-2.618,0-6.361,0.757-9.329,4.363
				c-3.088,3.746-3.909,7.443-2.375,10.695c1.723,3.653,6.343,6.204,11.236,6.204c3.225,0,6.245-1.063,8.733-3.074
				c4.082-3.296,5.581-6.902,4.334-10.427C427.72,209.332,422.185,205.922,416.658,205.922z"/>
		</g>
		<g>
			<path fill="#FFFFFF" d="M341.625,266.963l-2.234-1.418c-2.448-1.554-5.426-3.801-6.744-7.411
				c-2.632-7.32,1.849-16.841,4.911-21.314c0.394-0.591,0.863-1.184,1.465-1.845c1.677-1.834,3.613-3.02,5.757-3.528l2.398-0.568
				l0.294,7.744c0.331,8.502-2.533,17.7-5.059,25.814L341.625,266.963z M343.335,236.512c-0.457,0.334-0.896,0.732-1.318,1.193
				c-0.458,0.504-0.809,0.944-1.101,1.383c-3.529,5.156-6.185,12.865-4.458,17.665c0.492,1.347,1.419,2.569,2.914,3.802
				c2.182-7.107,4.319-14.85,4.05-21.777L343.335,236.512z"/>
		</g>
		<g>
			<path fill="#FFFFFF" d="M379.179,187.46l-2.27-3.358c0.505-0.343,12.553-8.337,26.021-2.992l-1.495,3.768
				C389.997,180.336,379.286,187.388,379.179,187.46z"/>
		</g>
		<g>
			<path fill="#FFFFFF" d="M378.826,169.824l-1.563-3.739c0.578-0.243,14.303-5.868,25.904,0.065l-1.845,3.608
				C391.416,164.695,378.951,169.772,378.826,169.824z"/>
		</g>
		<g>
			<path fill="#FFFFFF" d="M378.826,153.797l-1.563-3.739c0.578-0.242,14.303-5.867,25.904,0.065l-1.845,3.608
				C391.416,148.667,378.951,153.745,378.826,153.797z"/>
		</g>
		<g>
			<path fill="#FFFFFF" d="M384.89,297.496c-4.569,0-8.139-2.171-9.793-5.956c-0.516-1.108-0.868-2.488-1.028-4.061
				c-0.875-9.067,2.718-20.084,4.938-25.845c3.171-8.49,9.248-22.765,14.23-22.765c1.01,0,1.944,0.469,2.63,1.32
				c4.04,5.001,7.528,12.614,9.332,20.363c2.075,8.919,1.769,17.272-0.864,23.52c-1.031,2.462-2.447,4.655-4.208,6.512
				c-0.507,0.509-1.015,0.98-1.538,1.43c-0.109,0.191-0.242,0.396-0.439,0.593l-0.191,0.168c-3.404,2.639-7.418,4.246-11.608,4.648
				C385.858,297.472,385.367,297.496,384.89,297.496z M393.022,243.125c-2.254,1.731-7.093,11.559-10.227,19.947
				c-2.099,5.447-5.489,15.78-4.694,24.007c0.111,1.095,0.35,2.065,0.689,2.794c1.293,2.957,4.029,3.569,6.099,3.569
				c0.353,0,0.711-0.018,1.072-0.052c3.31-0.318,6.493-1.561,9.227-3.601c0.136-0.23,0.318-0.489,0.602-0.715
				c0.472-0.398,0.969-0.853,1.432-1.316c1.384-1.461,2.532-3.243,3.375-5.255C404.485,273.277,402.304,254.957,393.022,243.125z"/>
		</g>
		<g>
			<path fill="#FFFFFF" d="M410.265,309.977c-2.406-0.2-4.657-0.891-6.573-2.028c-0.111,3.231-1.582,6.194-5.08,7.91
				c-5.481,2.674-15.263-1.225-15.642-7.531c-0.914,1.849-1.983,3.365-3.186,4.211c-5.571,3.877-12.745-2.161-14.038-7.577
				c-0.87-3.694,2.46-6.244,5.201-7.84c1.375-0.801,3.004-1.856,4.634-1.98c1.994-0.151,2.565,1.45,4.171,1.916
				c3.788,1.099,7.657-0.899,11.348-1.533c2.255-0.387,4.746-0.18,6.791-1.43c3.874-2.369,3.561-7.307,8.967-7.271
				c3.517,0.024,7.196,0.148,9.911,2.672c1.602,1.49,2.593,3.658,3.144,5.751C421.651,301.844,418.621,310.69,410.265,309.977z"/>
			<path fill="#FFFFFF" d="M394.545,318.741c-4.63,0-9.638-2.256-12.088-5.916c-0.486,0.549-0.989,1.007-1.508,1.373
				c-1.528,1.063-3.216,1.6-5.024,1.6c-5.703,0-10.981-5.462-12.151-10.364c-0.891-3.784,1.18-7.167,6.153-10.062l0.415-0.244
				c1.404-0.828,3.15-1.859,5.085-2.006c1.984-0.14,3.183,0.796,3.966,1.407c0.401,0.312,0.66,0.507,0.922,0.583
				c0.565,0.164,1.16,0.244,1.817,0.244c1.596,0,3.281-0.469,5.064-0.966c1.156-0.322,2.352-0.655,3.56-0.862
				c0.735-0.126,1.465-0.193,2.172-0.258c1.47-0.135,2.858-0.263,3.905-0.903c1.144-0.699,1.854-1.783,2.606-2.931
				c1.354-2.066,3.041-4.638,7.358-4.638c3.397,0.023,7.95,0.054,11.351,3.215c2.138,1.988,3.206,4.751,3.724,6.719
				c1.226,4.652,0.328,9.851-2.288,13.244c-2.051,2.661-4.951,4.068-8.386,4.068c-0.36,0-0.728-0.016-1.106-0.048
				c-1.679-0.14-3.309-0.501-4.821-1.062c-0.839,2.958-2.822,5.3-5.768,6.745C398.059,318.384,396.392,318.741,394.545,318.741z
				 M384.535,300.584l0.458,7.623c0.219,3.65,5.315,6.481,9.553,6.481c1.208,0,2.307-0.225,3.178-0.649
				c2.517-1.234,3.845-3.307,3.943-6.159l0.118-3.418l2.941,1.745c1.637,0.971,3.611,1.577,5.708,1.751
				c2.571,0.216,4.523-0.615,5.941-2.456c1.847-2.397,2.482-6.31,1.579-9.737c-0.382-1.45-1.138-3.457-2.565-4.783
				c-2.08-1.934-4.976-2.106-8.545-2.13h0c-2.088,0-2.738,0.861-4.014,2.807c-0.874,1.333-1.962,2.993-3.882,4.167
				c-1.851,1.132-3.868,1.317-5.648,1.481c-0.658,0.061-1.279,0.118-1.858,0.217c-1.004,0.172-2.05,0.463-3.158,0.772
				c-1.967,0.548-4.002,1.114-6.152,1.114c-1.045,0-2.009-0.132-2.946-0.404c-1.022-0.297-1.721-0.841-2.283-1.278
				c-0.582-0.453-0.762-0.567-1.064-0.567l-0.106,0.004c-0.994,0.075-2.236,0.808-3.332,1.455l-0.435,0.256
				c-4.394,2.557-4.529,4.434-4.249,5.624c0.799,3.348,4.56,7.247,8.208,7.246c0.964,0,1.873-0.292,2.7-0.868
				c0.573-0.402,1.484-1.333,2.527-3.445L384.535,300.584z"/>
		</g>
		<g>
			<path fill="#FFFFFF" d="M391.204,339.092c-15.358,0-27.43-4.15-27.966-4.337l1.335-3.827c0.133,0.046,13.489,4.619,29.432,4.062
				c21.057-0.744,36.457-9.668,45.772-26.525l3.547,1.961c-9.93,17.968-26.978,27.865-49.301,28.619
				C393.073,339.077,392.131,339.092,391.204,339.092z"/>
		</g>
		<g>
			<path fill="#FFFFFF" d="M345.179,232.015l0.067,1.404c-1.693,0.401-3.298,1.359-4.724,2.919c-0.913-1.693-1.693-3.565-2.295-5.66
				c-2.852-9.96-1.983-20.745-1.805-30.95c0.183-10.458-0.215-20.742,3.827-30.619c3.188-7.789,7.447-17.439,14.957-21.99
				c0.78-0.468,3.32-1.025,6.061-1.649c-7.866,10.851-13.458,23.575-16.511,36.61c-1.805,7.71-2.028,15.642-1.627,23.597
				c0.334-0.156,0.668-0.334,1.003-0.468c0.223-0.089,0.446-0.223,0.668-0.29c-0.223,0.089-0.446,0.245-0.668,0.334
				c-0.334,0.134-0.669,0.29-1.003,0.446c-1.315,0.646-2.451,1.493-3.32,2.629c-1.047,1.359-1.738,3.097-1.894,5.303
				c-0.401,4.991,2.496,11.854,7.041,15.018C345.046,229.764,345.112,230.901,345.179,232.015z"/>
			<path fill="#FFFFFF" d="M340.092,239.812l-1.354-2.512c-1.02-1.891-1.847-3.93-2.459-6.062
				c-2.499-8.726-2.244-17.917-1.999-26.805c0.044-1.59,0.088-3.172,0.115-4.74c0.021-1.201,0.034-2.399,0.048-3.594
				c0.102-9.174,0.207-18.66,3.93-27.757c3.526-8.616,7.945-18.206,15.782-22.956c0.968-0.581,2.864-1.029,6.132-1.771l5.78-1.316
				l-3.161,4.361c-7.514,10.367-13.108,22.775-16.178,35.882c-1.537,6.565-2.037,13.884-1.576,23.033l-0.027,0.001l0.429,1.224
				l-0.111,0.062c-0.187,0.103-0.376,0.2-0.562,0.274c-0.292,0.117-0.588,0.256-0.884,0.394c-1.098,0.54-1.95,1.208-2.579,2.03
				c-0.879,1.14-1.362,2.517-1.482,4.215c-0.328,4.086,2.077,10.357,6.178,13.212l0.786,0.547l0.076,0.955
				c0.085,1.067,0.15,2.154,0.215,3.223l0.159,3.291l-1.638,0.388c-1.337,0.316-2.581,1.095-3.695,2.314L340.092,239.812z
				 M339.067,225.161c0.28,1.678,0.643,3.333,1.108,4.96c0.289,1.005,0.632,1.985,1.026,2.934c0.623-0.43,1.272-0.789,1.945-1.073
				l-0.001-0.026c-0.044-0.742-0.089-1.493-0.142-2.239C341.509,228.507,340.17,226.933,339.067,225.161z M356.599,148.717
				c-0.158,0.054-0.281,0.104-0.362,0.147c-6.763,4.098-10.832,12.996-14.113,21.013c-3.43,8.38-3.526,17.068-3.628,26.267
				c-0.014,1.204-0.027,2.411-0.048,3.62c-0.028,1.582-0.072,3.177-0.116,4.782c-0.023,0.819-0.045,1.642-0.066,2.466
				c0.741-0.948,1.674-1.776,2.782-2.471c-0.375-8.969,0.18-16.28,1.734-22.922C345.548,169.812,350.29,158.542,356.599,148.717z"/>
		</g>
	</g>
	<g>
		<g>
			<path fill="#FFFFFF" d="M558.431,212.823c1.401-0.653,3.152-1.307,3.853-2.614c5.955-2.941,7.706-11.11,15.76-11.437
				c2.801,1.634,6.304,2.288,9.457,0.327c1.401-1.634-1.402-2.615-1.751-3.922c-2.102,0-4.905-1.634-7.005,0
				c-1.402-0.327-3.853-0.327-3.853-2.287c-1.401-1.961-3.152-4.249-6.305-3.595c-4.202,3.268-2.451,8.822-6.304,12.744
				l-1.401,0.327c-3.502,1.307,1.05,3.268-0.701,4.575C560.182,209.23,557.731,210.864,558.431,212.823z"/>
		</g>
		<g>
			<path fill="#FFFFFF" d="M547.924,215.765c2.102-0.981,2.102-3.595,2.102-6.21l1.751-2.287c-3.502-1.634-1.05-6.536-2.452-9.804
				c0-1.307,0.351-3.268-1.401-4.249c-2.801,0-3.152-4.575-6.303-2.941c3.152,4.249,3.152,10.785,4.552,16.012
				c2.803,3.595-4.202,4.576-4.903,6.21v0.326c1.4-0.98,2.452-1.96,4.203-1.96C547.224,211.843,546.874,214.132,547.924,215.765z"/>
		</g>
		<g>
			<path fill="#FFFFFF" d="M532.864,218.379c1.05-2.941,5.253-2.614,6.654-5.229c-4.552-0.327-7.706,2.941-12.258,2.288
				c-1.751,0.327-2.452,0-3.502,0l0.701,1.961C526.91,219.359,530.062,219.359,532.864,218.379z"/>
		</g>
		<g>
			<path fill="#FFFFFF" d="M534.265,240.6c2.102-1.307,5.604-1.634,7.355-3.593l0.351,0.326c3.502,1.961-0.351,3.268-0.351,5.229
				c4.202-3.268,10.507-3.268,14.009-8.17l-2.102-1.634c-1.751,0.654-4.204-1.307-5.955,0.327c-1.05,0.327-1.751,1.307-3.152,1.307
				c-2.102-0.327-1.401-2.941-1.05-4.247c2.102-1.634,5.604-2.288,5.953-5.229c-1.05-0.654-1.751,0-3.152,0
				c-1.751-0.327-1.401-2.288-2.102-3.595c-1.05-0.98-3.152-2.941-4.903-0.98l1.052,6.209c-2.102,2.614-5.955,2.614-8.407,4.902
				c1.402,1.307,3.853,0.327,5.955,0c2.452,0,1.05,2.941,1.401,4.248c0,1.961-2.801,2.942-4.202,3.595
				c-5.955,1.634-11.559,5.229-17.862,5.556c-2.803,1.961-6.654,2.287-9.457,2.941c-0.351,0.654-1.05,0.654-1.751,0.654
				c0.35,0,0.701,1.307,2.102,0.653c1.4,0.981,3.502,1.307,5.254,1.634l6.654-2.614C524.109,244.522,529.362,242.888,534.265,240.6z
				"/>
		</g>
		<g>
			<path fill="#FFFFFF" d="M620.422,270.011l-2.103,3.268l-7.702,3.595c-1.402,0.327-3.153,0-4.203,0.981
				c-5.955,0.326-11.908-0.981-17.161-2.615c-1.751-2.287-4.554-3.595-5.604-6.209c-1.751-2.941-2.453-6.536-2.803-10.458
				c1.402-2.287-0.349-5.227,0.701-7.188c-0.351-3.595,2.452-5.883,2.452-9.803c0-2.288,3.152-2.941,3.851-5.229
				c-0.349-2.288-2.801-3.268-4.202-4.902c-2.453-0.654-5.253,0-7.706,0.98c0-0.98-1.05-1.959-0.35-2.941
				c-2.1-2.941-4.552-5.229-7.704-6.536l-0.351,0.981c1.751,2.941,0.351,6.861,1.401,10.129c0,0.327-1.05,0.981-0.7,1.308
				c0,5.227-6.656,5.227-9.807,6.861c0,3.595,4.554,2.288,7.005,3.922c-0.699,0.98-1.4,1.961-1.05,2.941
				c-2.102,1.307,0.351,4.249-2.102,5.229c0,2.288-2.801,4.247-1.05,6.536c2.801-0.98,2.1-5.229,5.602-5.881l5.604,3.593
				c1.052,1.634,4.903,1.634,4.203,4.249c-0.701,6.863,3.152,12.417,7.005,17.646c0.699,0.98,2.451,1.961,1.751,3.922
				c6.303,2.941,12.609,8.495,19.962,7.515c3.155,0.654,6.305-0.654,8.409-2.614c2.798-3.268,5.254-6.536,5.602-10.785
				C621.472,275.894,619.024,272.953,620.422,270.011z M575.243,249.751c0,0.653,0.349,1.634-0.351,1.307
				c-1.751-0.654-4.203-0.327-5.604-1.961c1.05-2.941,1.05-8.497,5.604-9.149c1.751,1.307,0.7,2.941,0.7,4.902
				C575.942,246.483,577.694,248.77,575.243,249.751z"/>
		</g>
		<g>
			<path fill="#FFFFFF" d="M540.22,242.888c-0.35,0.327-0.701,0.327-1.052,0.327c-2.102,1.961-5.604,3.268-8.055,5.229
				c-0.701,1.307-4.203,2.941-1.401,4.248l9.456-4.902l0.35-0.654c-1.05-0.326-2.102,0.654-2.801-0.326
				C537.417,245.176,539.168,243.868,540.22,242.888z"/>
		</g>
		<g>
			<path fill="#FFFFFF" d="M541.62,271.972c1.05-1.634,2.801-2.941,5.254-2.941c1.401-0.654,4.552-1.634,3.853-3.922
				c-3.153-1.307-6.305,0.327-9.457,0.981c-2.452-1.634-1.401-4.575-2.102-7.19c0.701-1.307,2.452-0.653,3.853-1.307
				c2.102-1.634,5.253-1.307,7.706-2.941c1.05-1.307-0.35-1.634-0.701-2.615c1.751-2.287,4.552-2.941,5.955-5.554l-1.052-1.961
				c-2.451-1.634-5.253-0.98-7.704,0.327c0.699,0.653,2.451,0.653,2.801,1.961c-2.452,2.287-4.203,5.555-7.355,7.516h-1.05
				c-4.554,2.613-10.507,3.268-14.71,6.209c1.052,0.981,3.152,0,4.554,0.981l4.903-2.288c3.502,1.307,0.351,3.922,1.05,5.881
				c-0.699,2.615-3.152,3.595-5.253,4.249c-5.254,0.327-10.156,4.902-15.761,2.614c-0.351,1.307-3.152,2.288-1.751,3.922
				c1.052,1.307,2.452,2.941,4.204,2.287l15.76-5.882c1.4-0.327,1.05,1.307,1.05,2.288c-1.751,2.287-1.401,4.575-2.801,7.188
				c-0.351,3.268-1.751,8.824,2.451,11.11c2.803,0.654,4.554-1.959,5.604-3.593c0.701-0.654,0-2.288,1.401-2.942
				C541.971,281.123,543.371,276.874,541.62,271.972z"/>
		</g>
		<g>
			<path fill="#FFFFFF" d="M559.132,280.142c3.152-0.98,7.704-1.307,9.106-5.229c-1.052-1.634-1.052-4.575-3.853-3.921
				c-3.502,1.634-6.654,2.614-10.507,3.268C555.629,276.221,558.431,277.855,559.132,280.142z"/>
		</g>
		<g>
			<path fill="#FFFFFF" d="M569.288,300.728v0.654c0.701,0.98,0.701,2.288-0.701,2.614c-5.953,0.983-11.908,4.251-18.211,4.576
				l-1.052-0.654c1.402-1.963,4.204-3.268,5.254-5.556l9.807-7.188c1.751-1.307,4.903-2.941,3.853-5.882l-3.502-2.615
				c-1.751-0.327-4.204-1.961-5.254,0.327c-2.452,1.634-5.604,2.288-8.407,1.634c0-0.98,0-1.961,0.701-2.288
				c-2.102,0.981-2.801,2.615-4.203,3.922c-0.7,3.922,4.554,4.575,6.656,6.863c-1.751,3.268-4.554,6.21-7.706,8.495
				c-3.853,2.943-5.604,7.844-3.853,12.092c3.152,1.634,4.903-1.305,7.706-1.963c6.303-1.634,12.258-5.553,19.263-4.902
				c1.05,0.657-0.701,1.634,0.351,2.291c0.699-0.657,1.751-0.983,2.801-0.983c2.801-1.308,6.304-3.268,5.955-7.187
				C576.994,302.037,572.79,301.054,569.288,300.728z"/>
		</g>
	</g>
	<g>
		<g>
			<path fill="#FFFFFF" d="M763.337,303.849c-2.559,0-5.544-1.705-8.53-0.854c-0.427,0-0.427-0.425-0.427-0.852
				c-2.133-1.281-4.265-0.854-6.398-1.706c-5.543-2.986-11.941-2.986-17.06-5.546c-6.397-1.706-13.22-3.838-19.617-4.692
				c-1.281-0.852-2.559-1.279-3.84-1.706c-5.117,0-8.103-1.279-12.368-2.132c-2.559,0.854-3.838-2.559-6.397-0.427
				c-1.279-1.279-2.133,0.427-2.984-1.279c-0.427-0.854,0.425-1.279,0.852-2.133c1.281-1.279,2.986-2.986,4.265-4.265
				c0.427-0.854,1.706-1.706,1.281-2.56c2.132-2.559,0-5.543-0.427-8.103c1.279-1.279,2.984-1.706,4.265-2.986
				c3.411-0.425,5.544-3.411,7.676-5.543c2.986-3.838,6.824-5.97,9.384-9.809c0.427-1.281,2.133-4.265,3.838-2.986
				c1.279,3.411,2.133,7.676,0.427,10.662c0.852,4.265,0,9.384,0.427,14.073c-2.559,2.132-4.692-1.706-6.824-0.852
				c1.705,4.692,4.265,9.381,6.824,13.646h1.706c6.824-4.265,1.706-12.795,3.411-18.765l-0.427-0.852
				c-1.706-1.708-0.425-4.265-0.425-5.972c-1.708-10.235,0-18.338-0.427-28.147c0.427-2.559,4.265-2.132,4.265-4.692
				c0.427,0.852,0.852,0.852,1.706,0.852c1.279-0.852,2.986-1.278,2.986-3.411c-0.427-0.854-1.281-0.854-2.133-0.427
				c-1.708-1.706-4.265,0-6.397,0c-1.281-0.852-0.427-3.411-0.854-4.692c1.706-2.133,0-4.69,0.854-7.249
				c0.425-3.413,2.557-6.397,1.706-9.384c-1.706-1.279-2.986-3.838-5.546-3.838c-1.706-0.427-4.265-1.279-5.544,0.427
				c-2.132,2.984,2.56,3.411,3.838,5.543c0.427,6.824,1.706,13.649,0.854,20.473c-1.281,4.265-6.397,3.838-9.811,5.543
				c-3.411,0-6.397,2.132-9.382,2.559v0.427c2.984,0,7.249,2.132,10.235,0.425c2.133,1.281,3.838-2.557,5.543,0
				c-0.425,2.986-1.705,5.973-3.838,8.53c0,2.559-2.559,3.84-2.984,6.397c-2.133,2.986-3.413,7.251-6.398,9.811
				c-3.413,2.56-5.119,8.103-9.384,9.382c-1.706-1.706-4.265-1.706-4.692-3.838c-2.559-1.706-3.838-5.544-2.984-8.957
				c2.557-2.557,4.265-4.265,4.69-7.676c-1.279-5.119-7.249-2.986-10.662-4.692c0.854-1.279,1.281-3.411,2.986-3.411
				c0-0.427,0.854-0.854,0-1.705c-0.854,0.852-1.706,0.852-2.132,0.852c-1.706,0.427-0.427,0.854-0.427,2.133
				c-0.427,1.281-1.706,1.706-2.984,1.706v2.132c0.852,2.132,2.557,3.413,5.117,3.84c3.838,3.411,2.559,8.53,1.706,12.795
				c2.559,4.265,4.692,8.53,6.397,13.22c-1.706,2.559-1.706,5.973-3.838,8.53c-2.133,2.986-7.676,5.546-5.117,9.811
				c2.133,0.852,3.411-0.427,5.117-1.281c3.413-2.984,7.251-1.279,11.516-2.984c0.852,1.279,2.984,0.427,3.838,1.279
				c3.838,0.854,8.103,0.854,11.516,2.986c3.838,0.852,7.249,2.984,11.087,4.265c2.986,0,5.119,3.838,8.105,2.56
				c0.425,1.278,1.706,2.132,2.984,2.132c5.119,3.838,11.516,5.97,17.486,8.53c2.133,0,3.411,2.984,5.544,2.132
				c1.708,2.557,4.692,0.852,6.824,2.133c2.559,2.133,3.838-0.854,5.971,0c2.132-1.708,5.546-0.854,7.678-2.56
				c3.411,0,7.249-0.427,10.236-2.132C779.545,305.981,771.44,305.127,763.337,303.849z"/>
		</g>
		<g>
			<path fill="#FFFFFF" d="M727.939,234.331c2.56-1.281,5.544-3.413,7.676-5.973c2.132-2.132,3.838-5.543,6.824-6.822
				c-0.854-5.119,7.251-6.397,5.119-12.37c-0.427-2.132-2.559-3.838-3.84-5.97c-0.852-0.427-2.984-0.427-3.838,0.427
				c-1.279,0.854,0,1.279,0.427,1.706c-0.427,2.559,2.559,4.692,0,7.251c0,6.397-4.692,9.808-7.251,14.927
				C730.071,229.639,730.498,232.199,727.939,234.331z"/>
		</g>
		<g>
			<path fill="#FFFFFF" d="M685.716,227.507c1.706,1.279,3.838,1.279,4.69-0.854c1.708-2.559,0.427-5.117,0-7.676
				c-2.133-1.281-4.69-2.133-7.676-2.133c-1.705,1.279,1.706,3.411,1.279,5.97C686.141,223.669,683.584,226.226,685.716,227.507z"/>
		</g>
		<g>
			<path fill="#FFFFFF" d="M744.145,220.683c3.838,3.411,9.384,1.279,14.076,1.279c1.279-1.706,3.838,0.427,4.265-1.706
				c0.425-0.427,0.852,0.854,0.852,0c-0.852-1.705-2.984-3.411-5.544-2.984c-2.986,0-5.119,3.411-8.53,2.133
				C747.983,221.961,745.85,218.977,744.145,220.683z"/>
		</g>
		<g>
			<path fill="#FFFFFF" d="M680.171,235.183c0.427-1.279,2.559-1.279,2.559-2.132c0.427-2.133-2.559-2.984-2.132-5.117
				c-0.854,0.852-0.854,1.706,0,2.132c0,1.279-0.427,2.132-0.854,2.557C679.744,233.477,678.465,235.183,680.171,235.183z"/>
		</g>
		<g>
			<path fill="#FFFFFF" d="M749.69,249.683c0.852-1.706,2.557-2.984,3.838-3.838c2.132-2.559,4.692-2.133,6.824-4.265
				c0.425-1.279,2.132-2.984,0.852-4.692l-0.852-1.279c-3.84-2.559-8.53-2.133-12.37,0.427c0.427,1.278,1.281,1.278,2.133,1.705
				c1.281-0.427,0.427-2.559,1.708-1.705c-0.854,2.132,2.557,0.427,2.984,2.559c-1.706,4.69-4.265,8.103-7.676,11.514
				c2.133,0.854,1.706,3.413,3.838,4.692c-0.427,1.279,0.427,2.559,0.854,3.838c-1.708,2.986-5.973,1.706-8.105,3.838
				c-6.397,0-12.795,2.559-18.338,2.986c1.279,1.706,3.411,0,4.265,1.279c1.279-1.706,2.133,0.427,3.838,0
				c5.97,0.427,11.943-6.397,17.913-2.984c2.984,3.838,0.852,9.808,0,13.646c-1.281,2.986-3.413,6.397-7.251,6.824
				c-1.279-1.706-2.984,0.427-4.692,0.427c0.427,1.279,1.708,2.986,2.986,4.265c1.279,0.427,2.986,0.854,4.265,0.427
				c4.692-0.427,5.97-5.97,7.676-9.811c2.986-5.543,0-11.514,2.559-17.06c1.705,0,2.986-1.279,4.265,0
				c3.413-0.852,7.251,3.413,9.384-0.852c-0.854-1.281-1.281-3.413-3.413-4.265c-3.838-0.427-7.249,0.852-11.087,1.279
				C753.528,255.656,752.247,252.669,749.69,249.683z"/>
		</g>
		<g>
			<path fill="#FFFFFF" d="M744.145,238.169l-2.132,0.852c-1.279,1.708-3.411,0-4.692,0.427l-5.97,5.546
				c-0.852,1.279,0,3.411,0.427,4.69c1.706,0,3.411,0.854,4.692-0.852c1.706-2.986,5.544-3.838,7.676-7.251
				c-0.427-0.427,0-1.279,0-1.705l0.854,0.427c0.427-1.281,2.559-0.854,2.984-2.559c-0.852-2.132-1.705,1.279-2.984,0
				c0.852,0.427,0,1.279,0,2.132C744.145,239.448,744.999,238.596,744.145,238.169z"/>
		</g>
	</g>
	<g>
		<g>
			<path fill="#FFFFFF" d="M48.789,243.558c-0.551-5.051,4.926-6.735,4.375-11.792c0.551-3.367,4.386-6.735,7.67-6.176
				c3.835-3.932,9.864,0,13.148-4.497c-1.097-8.984-9.863,0-14.79-2.808c0.551-5.616,2.188-10.103,1.642-15.718
				c-2.193-2.249-3.83-6.181-6.023-7.865c-1.096,0-2.739-1.689-3.835,0l2.739,9.543c-1.642,5.616-0.551,12.922-4.381,16.849
				c-6.574,2.249-13.693,3.373-20.267,6.181c5.477,3.932,12.051-0.565,17.528,2.243c1.091,3.938-2.193,6.746-2.739,10.113
				c-4.931,14.04-14.79,24.713-23.006,36.505c-2.188,0-4.381,2.249-4.926,3.367c4.376-0.559,8.216-5.057,12.591-6.176
				c5.477-7.305,12.056-12.922,15.34-21.346C47.142,250.304,46.596,245.807,48.789,243.558z"/>
		</g>
		<g>
			<path fill="#FFFFFF" d="M85.483,229.518c4.386-4.486,7.125-9.543,11.5-14.04l0.551-7.295c-1.097-3.938-2.739-7.865-6.574-8.989
				l-0.546,1.124c1.091,10.673-6.574,18.532-11.5,26.391c-0.551,3.938-6.028,5.616-5.477,9.554l3.284-0.565
				c3.83-1.124,5.477-5.616,9.307-4.492c-1.637,8.984-0.545,17.408-1.091,26.956c-1.097,6.741,0,14.04-2.193,21.34
				c0,7.865-1.091,15.165-3.83,23.024c-0.551,2.808-0.551,6.181,2.188,8.424c1.642,1.13,2.739-0.559,4.381-0.559
				c1.648-6.735,1.648-14.04,1.648-19.657c-0.551-3.927,0-7.865,0.545-11.232c-1.097-0.559-2.193-1.684-2.193-2.808
				c2.739-10.673,3.284-22.465,3.284-33.137C87.676,238.507,90.414,232.891,85.483,229.518z"/>
		</g>
		<g>
			<path fill="#FFFFFF" d="M146.279,276.136c-9.307-3.367-18.62,5.057-26.836-0.559c0-2.808-1.096-6.746,0.551-9.554
				c4.375,0,9.853-1.119,14.784-2.243v-1.124c-3.284-2.249-8.762-2.249-13.148-1.684c-3.83-2.808-2.738-8.424-2.188-12.916
				c3.29-1.124,8.767-2.249,12.051-1.689c0-1.119,2.193-1.678,1.091-2.808c-2.739-2.243-8.216-1.678-12.046-0.56
				c-2.739-1.119-1.097-4.492-1.647-6.175c0.551-3.932-6.568-5.616-3.284-8.984c3.284,0.56,7.125,0.56,9.864,0
				c3.83-1.689,10.404,2.243,12.046-2.808c-3.83-8.424-13.148,0-20.262-1.13l-2.193-1.119c-0.546-5.057,4.932-6.741,5.477-11.232
				c-2.193-3.932-5.477-8.424-10.409-7.865c-1.091,1.124-4.381,2.249-2.193,3.932c6.579,2.808,1.102,10.108,2.193,15.165
				c-4.381,3.927-10.409,2.249-14.239,5.057c4.381,1.678,10.409,2.808,14.784,1.119c3.29,2.808,1.102,8.424,2.193,11.792
				c-2.739,6.181-9.858,2.808-14.239,5.616v0.565c3.83,1.684,9.307,0,13.693,2.243v11.232c-2.193,4.497-7.125,3.373-11.5,3.938
				c2.739,1.678,6.023,3.927,8.762,2.243c1.642,1.124,3.284,3.373,2.739,5.616c2.739,12.357-14.79,6.181-19.716,9.549
				c2.188,1.684,5.477,2.249,7.665,2.808c3.835-1.689,9.312,0,13.142-1.689c7.67,1.13,14.795-3.367,22.46,0
				c3.835-2.808,7.119,2.249,10.954-0.559C148.471,280.063,147.38,278.385,146.279,276.136z"/>
		</g>
		<g>
			<path fill="#FFFFFF" d="M49.88,267.712c3.835-7.305,10.954-11.232,12.051-19.097c-1.097-1.684-1.642-3.927-3.835-3.367
				c-0.545,6.175-4.381,11.792-8.216,16.848c-3.284,6.735-11.5,8.984-11.5,15.724c-2.193,2.243,1.091,3.373,0.546,6.181
				c2.739-0.565,4.931,0,7.67-1.689c3.83-4.492,10.955-6.735,13.148-13.481c-3.29,0.565-7.125,6.181-12.057,5.057
				C44.403,271.079,48.789,269.396,49.88,267.712z"/>
		</g>
		<g>
			<path fill="#FFFFFF" d="M65.767,260.971c-0.546,3.373-1.097,8.989,0.546,12.357c1.647,0,2.738,2.249,4.386,0.56
				c2.188-1.119,2.739-2.808,2.739-5.057C72.335,264.904,68.505,262.655,65.767,260.971z"/>
		</g>
	</g>
	<g>
		<g>
			<path fill="#FFFFFF" d="M271.123,227.482c0.515-0.592,1.032-1.774,1.549-1.182c2.066-0.592,1.034,1.182,1.549,1.774
				c2.069,0.592,0-1.185,0.517-2.367c0-0.592,0-2.367,1.034-2.367c1.032,0.59,1.549,1.774,1.549,2.367
				c4.65-4.736,8.268-11.244,9.817-18.347c-1.029-2.959-3.098-5.326-5.682-7.103c-1.034-0.589-2.069,0-2.069-1.774
				c-7.234-2.959,0.515,5.326-3.098,8.285c-1.552,4.144-2.584,8.285-5.167,12.429c0,3.551-3.101,4.733-3.101,7.692
				c-4.135,5.918-8.268,11.247-12.401,17.165h0.515c6.719,1.182,10.335-8.288,16.019-10.654
				C271.123,230.441,274.222,229.259,271.123,227.482z"/>
		</g>
		<g>
			<path fill="#FFFFFF" d="M236.501,265.949c-2.066,2.364-4.133,5.918-4.65,8.877c-2.066,1.774-1.552,5.918-3.618,7.103
				c-1.032-1.185-1.032-2.959-1.032-4.144c-2.584-4.733,1.032-8.282-0.517-13.018c1.549-5.329,0.517-10.062,0-15.388
				c-1.552-2.959-4.135-4.144-6.719-5.918c-0.515-1.185-0.515-3.551,0-4.736c3.101-1.182,4.653-4.733,6.202-7.692
				c5.167-1.774,4.133-7.103,8.785-10.652c0-1.777,0.515-2.959,1.549-4.144c1.034-2.959,1.549-5.918,0-8.285
				c-3.101-2.959-5.167-5.326-9.817-4.736c-3.618,1.777-6.719,4.736-8.785,8.877c1.034,0,1.552-1.182,3.101-1.182
				c2.584,2.367,1.034,5.918,0.517,8.877c-6.202,12.429-15.502,23.08-21.186,35.509c-6.202,4.733-7.751,10.059-12.918,14.206
				c-0.517-0.595-2.066,0-2.066-1.78c-0.517,2.37-1.552,2.959-2.066,5.329c-2.584,2.959,0.515,4.138,2.066,6.508
				c5.685-2.37,9.817-5.918,12.918-11.836c3.101,0.59,2.066-4.141,5.167-4.733c1.032-2.959,3.101-5.326,5.167-7.1
				c2.584-4.144,5.685-7.695,8.783-11.836c3.618,0.59,4.135,4.733,5.685,7.1c-1.032,2.367,2.066,4.144,1.034,6.51
				c1.032,4.733-0.517,8.88,1.549,13.018l-1.032,0.59c0,8.877-1.552,15.986-2.069,23.673c0,2.37-2.066,3.554-0.515,5.329
				l-0.517,0.589c0,4.15,1.032,8.877,4.65,11.247c1.549,0.59,4.133,1.185,5.167-1.179c1.549-1.78,1.549-3.554,2.584-5.918
				c0-12.432,0.517-24.863,2.066-37.289c0-1.179,2.066-2.367,1.552-4.733C237.019,264.175,235.467,264.768,236.501,265.949z"/>
		</g>
		<g>
			<path fill="#FFFFFF" d="M303.676,236.359c-3.103-2.959-5.167-7.692-9.815-8.877c-1.04,0.592-1.554,1.185-2.069,2.959
				c-4.653,2.959-8.266,9.47-13.953,8.285c-1.034,1.185-3.101,0-3.101,1.777c2.066,0.592,4.135-0.592,6.204,1.182
				c0.515-0.59,0.515-1.182,1.544-0.59c3.104,0.59,7.751-1.185,11.374,1.182v14.795c-0.52,8.877,0,16.57-1.04,25.447
				c0,0.59-1.029,1.78,0,2.959c-4.647,4.144-11.879,1.78-16.531,7.103c1.549,1.185,0,3.554-1.034,4.733h0.517c0,0,0,0,0.517,0
				c2.069-1.179,3.613-2.37,5.682-2.959c3.098,0,6.202-2.37,8.785,0.59c2.064-1.179,3.104,2.37,5.167,1.19
				c3.618-2.959,3.103-7.698,3.103-11.836c1.03-8.288,2.064-16.575,2.064-25.45l0.52-1.185c-0.52-2.959,0.515-6.51,0.515-8.877
				C304.711,245.829,303.676,240.503,303.676,236.359z"/>
		</g>
		<g>
			<path fill="#FFFFFF" d="M279.389,262.398c3.098-0.59,4.653-2.367,7.751-3.548c-0.515-3.551-4.133-3.551-6.716-4.144
				c-3.618,2.366-8.268,2.366-12.401,4.144c-2.066-4.144-5.685-7.695-9.303-8.877c2.069,6.507,0.517,12.426,1.034,19.531
				c1.549,7.687-4.133,22.482,6.716,26.632l1.552-2.959c0-10.068,2.066-18.35-1.552-27.227c1.552-1.774,0-5.326,2.584-5.918
				C273.19,261.809,277.323,258.257,279.389,262.398z"/>
		</g>
	</g>
	<g>
		<path fill="#FFFFFF" d="M423,380.5"/>
	</g>
	<g>
		<path fill="#FFFFFF" d="M66,380.5"/>
	</g>
	<g>
		<path fill="#FFFFFF" d="M164,335.5H-2v-166h166V335.5z M2,331.5h158v-158H2V331.5z"/>
	</g>
	<g>
		<path fill="#FFFFFF" d="M323,199.5"/>
	</g>
	<g>
		<polygon fill="#FFFFFF" points="317,335.5 160,335.5 160,169.5 320,169.5 320,173.5 164,173.5 164,331.5 317,331.5 		"/>
	</g>
	<g>
		<path fill="#FFFFFF" d="M485,248.5"/>
	</g>
	<g>
		<polygon fill="#FFFFFF" points="648,335.5 486,335.5 486,331.5 644,331.5 644,173.5 493,173.5 493,169.5 648,169.5 		"/>
	</g>
	<g>
		<polygon fill="#FFFFFF" points="483,276.76 483,276.5 487,276.5 487,276.7 		"/>
	</g>
	<g>
		<path fill="#FFFFFF" d="M810,335.5H644v-166h166V335.5z M648,331.5h158v-158H648V331.5z"/>
	</g>
</g>
</svg>
