<?xml version="1.0" encoding="utf-8"?>
<!-- Generator: Adobe Illustrator 18.1.1, SVG Export Plug-In . SVG Version: 6.00 Build 0)  -->
<svg version="1.1" id="圖層_1" xmlns="http://www.w3.org/2000/svg" xmlns:xlink="http://www.w3.org/1999/xlink" x="0px" y="0px"
	 viewBox="245 21 891 88" enable-background="new 245 21 891 88" xml:space="preserve">
<rect x="1051.3" y="67.7" fill="#C45D40" width="84.7" height="4.4"/>
<rect x="245" y="67.7" fill="#C45D40" width="81.7" height="4.4"/>
<g>
	<path fill="#C45D40" d="M341,89.3V40.7h19.4c3.4,0,6,0.2,7.8,0.5c2.5,0.4,4.7,1.2,6.4,2.3c1.7,1.1,3.1,2.7,4.1,4.7
		c1,2,1.6,4.2,1.6,6.6c0,4.1-1.4,7.6-4.2,10.5c-2.8,2.9-7.8,4.3-15.1,4.3h-13.2v19.7H341z M347.8,63.8h13.3c4.4,0,7.5-0.8,9.4-2.3
		c1.9-1.5,2.8-3.7,2.8-6.5c0-2-0.5-3.8-1.6-5.2c-1.1-1.4-2.5-2.4-4.3-2.9c-1.1-0.3-3.3-0.4-6.4-0.4h-13.2V63.8z"/>
	<path fill="#C45D40" d="M390.2,89.3V40.7h6.8v48.5H390.2z"/>
	<path fill="#C45D40" d="M409.1,89.3V40.7h37.3v5.7H416v14.9h28.5V67H416v16.5h31.6v5.7H409.1z"/>
	<path fill="#C45D40" d="M457.1,89.3V40.7H480c4.6,0,8.1,0.4,10.5,1.3c2.4,0.9,4.3,2.4,5.7,4.6c1.4,2.2,2.1,4.6,2.1,7.3
		c0,3.4-1.2,6.3-3.6,8.7c-2.4,2.4-6,3.9-11,4.5c1.8,0.8,3.2,1.6,4.1,2.4c2,1.7,3.9,3.9,5.7,6.5l9,13.2H494l-6.8-10.1
		c-2-2.9-3.6-5.1-4.9-6.7c-1.3-1.5-2.4-2.6-3.5-3.2c-1-0.6-2.1-1-3.1-1.3c-0.8-0.2-2-0.2-3.8-0.2H464v21.5H457.1z M464,62.2h14.7
		c3.1,0,5.6-0.3,7.3-0.9c1.8-0.6,3.1-1.6,4-2.9c0.9-1.3,1.4-2.8,1.4-4.4c0-2.3-0.9-4.2-2.7-5.7c-1.8-1.5-4.6-2.2-8.4-2.2H464V62.2z"
		/>
	<path fill="#C45D40" d="M505.8,74.7v-6h19.4v6H505.8z"/>
	<path fill="#C45D40" d="M563.7,83.5v5.7h-34.1c0-1.4,0.2-2.8,0.7-4.1c0.9-2.2,2.3-4.3,4.2-6.5c1.9-2.1,4.7-4.6,8.3-7.3
		c5.6-4.3,9.4-7.7,11.4-10.3c2-2.5,3-4.9,3-7.2c0-2.4-0.9-4.4-2.7-6s-4.1-2.4-7-2.4c-3,0-5.5,0.9-7.3,2.6c-1.8,1.7-2.8,4.1-2.8,7.1
		l-6.5-0.6c0.4-4.6,2.1-8,5-10.4c2.9-2.4,6.8-3.6,11.7-3.6c4.9,0,8.9,1.3,11.7,3.9c2.9,2.6,4.3,5.8,4.3,9.6c0,1.9-0.4,3.9-1.3,5.7
		s-2.2,3.8-4.2,5.9c-2,2.1-5.2,4.9-9.8,8.5c-3.8,3-6.2,5-7.3,6.1c-1.1,1.1-2,2.1-2.7,3.2H563.7z"/>
	<path fill="#C45D40" d="M583.4,89.3l19.8-48.5h7.3l21.1,48.5h-7.8l-6-14.7h-21.6l-5.7,14.7H583.4z M598.3,69.3h17.5l-5.4-13.4
		c-1.6-4.1-2.9-7.4-3.7-10.1c-0.7,3.1-1.6,6.2-2.8,9.3L598.3,69.3z"/>
	<path fill="#C45D40" d="M637.2,89.3V40.7h22.9c4.6,0,8.1,0.4,10.5,1.3c2.4,0.9,4.3,2.4,5.7,4.6c1.4,2.2,2.1,4.6,2.1,7.3
		c0,3.4-1.2,6.3-3.6,8.7c-2.4,2.4-6,3.9-11,4.5c1.8,0.8,3.2,1.6,4.1,2.4c2,1.7,3.9,3.9,5.7,6.5l9,13.2H674l-6.8-10.1
		c-2-2.9-3.6-5.1-4.9-6.7c-1.3-1.5-2.4-2.6-3.5-3.2c-1-0.6-2.1-1-3.1-1.3c-0.8-0.2-2-0.2-3.8-0.2H644v21.5H637.2z M644,62.2h14.7
		c3.1,0,5.6-0.3,7.3-0.9c1.8-0.6,3.1-1.6,4-2.9c0.9-1.3,1.4-2.8,1.4-4.4c0-2.3-0.9-4.2-2.7-5.7c-1.8-1.5-4.6-2.2-8.4-2.2H644V62.2z"
		/>
	<path fill="#C45D40" d="M700.9,89.3V46.5h-17v-5.7h40.9v5.7h-17.1v42.8H700.9z"/>
	<path fill="#C45D40" d="M787.3,72.2l6.8,1.6c-1.4,5.3-4,9.3-7.7,12.1c-3.7,2.8-8.3,4.2-13.6,4.2c-5.6,0-10.1-1.1-13.6-3.2
		c-3.5-2.1-6.1-5.2-7.9-9.2c-1.8-4-2.7-8.4-2.7-13c0-5.1,1-9.5,3.1-13.2c2.1-3.8,5-6.6,8.8-8.6c3.8-2,8-2.9,12.5-2.9
		c5.2,0,9.5,1.2,13,3.7c3.5,2.5,6,5.9,7.3,10.4l-6.7,1.5c-1.2-3.5-2.9-6.1-5.2-7.7c-2.3-1.6-5.1-2.4-8.6-2.4c-4,0-7.3,0.9-9.9,2.7
		c-2.7,1.8-4.5,4.2-5.6,7.2c-1.1,3-1.6,6.1-1.6,9.3c0,4.1,0.6,7.7,1.9,10.8c1.3,3.1,3.3,5.4,6,6.9s5.6,2.3,8.8,2.3
		c3.8,0,7.1-1,9.7-3.1C784.5,79.4,786.3,76.3,787.3,72.2z"/>
	<path fill="#C45D40" d="M802.6,89.3V40.7h37.3v5.7h-30.4v14.9h28.5V67h-28.5v16.5h31.6v5.7H802.6z"/>
	<path fill="#C45D40" d="M850.4,89.3V40.7h7l27.1,38.1V40.7h6.5v48.5h-7L857,51.1v38.1H850.4z"/>
	<path fill="#C45D40" d="M915.6,89.3V46.5h-17v-5.7h40.9v5.7h-17.1v42.8H915.6z"/>
	<path fill="#C45D40" d="M946.6,89.3V40.7h37.3v5.7h-30.4v14.9h28.5V67h-28.5v16.5h31.6v5.7H946.6z"/>
	<path fill="#C45D40" d="M994.6,89.3V40.7h22.9c4.6,0,8.1,0.4,10.5,1.3c2.4,0.9,4.3,2.4,5.7,4.6c1.4,2.2,2.1,4.6,2.1,7.3
		c0,3.4-1.2,6.3-3.6,8.7c-2.4,2.4-6,3.9-11,4.5c1.8,0.8,3.2,1.6,4.1,2.4c2,1.7,3.9,3.9,5.7,6.5l9,13.2h-8.6l-6.8-10.1
		c-2-2.9-3.6-5.1-4.9-6.7s-2.4-2.6-3.5-3.2c-1-0.6-2.1-1-3.1-1.3c-0.8-0.2-2-0.2-3.8-0.2h-7.9v21.5H994.6z M1001.4,62.2h14.7
		c3.1,0,5.6-0.3,7.3-0.9c1.8-0.6,3.1-1.6,4-2.9c0.9-1.3,1.4-2.8,1.4-4.4c0-2.3-0.9-4.2-2.7-5.7s-4.6-2.2-8.4-2.2h-16.3V62.2z"/>
</g>
</svg>
