<?xml version="1.0" encoding="utf-8"?>
<!-- Generator: Adobe Illustrator 18.1.1, SVG Export Plug-In . SVG Version: 6.00 Build 0)  -->
<svg version="1.1" id="圖層_1" xmlns="http://www.w3.org/2000/svg" xmlns:xlink="http://www.w3.org/1999/xlink" x="0px" y="0px"
	 viewBox="245 21 891 88" enable-background="new 245 21 891 88" xml:space="preserve">
<rect x="1084" y="67.7" fill="#C45D40" width="52" height="4.4"/>
<rect x="245" y="67.7" fill="#C45D40" width="52" height="4.4"/>
<g>
	<path fill="#C45D40" d="M307,89.4V40.6h9.6L328,75.2c1.1,3.2,1.8,5.6,2.3,7.2c0.5-1.8,1.4-4.4,2.6-7.8l11.5-34h8.6v48.8h-6.1V48.6
		l-14,40.9h-5.7l-13.9-41.6v41.6H307z"/>
	<path fill="#C45D40" d="M394.8,40.6h6.4v28.2c0,4.9-0.5,8.8-1.6,11.7c-1.1,2.9-3.1,5.2-5.9,7c-2.9,1.8-6.6,2.7-11.2,2.7
		c-4.5,0-8.2-0.8-11.1-2.4c-2.9-1.6-4.9-3.9-6.1-6.8c-1.2-3-1.8-7.1-1.8-12.2V40.6h6.4v28.2c0,4.2,0.4,7.4,1.2,9.4
		c0.8,2,2.1,3.6,4,4.6c1.9,1.1,4.2,1.6,6.9,1.6c4.7,0,8-1.1,10-3.2c2-2.2,3-6.3,3-12.4V40.6z"/>
	<path fill="#C45D40" d="M409.6,73.7l6-0.5c0.3,2.4,0.9,4.4,2,6c1,1.6,2.7,2.8,4.8,3.8c2.2,1,4.6,1.4,7.4,1.4c2.4,0,4.6-0.4,6.4-1.1
		c1.9-0.7,3.2-1.7,4.2-3c0.9-1.3,1.4-2.7,1.4-4.2c0-1.5-0.4-2.9-1.3-4c-0.9-1.1-2.3-2.1-4.3-2.9c-1.3-0.5-4.1-1.3-8.6-2.4
		s-7.5-2.1-9.3-3c-2.3-1.2-4-2.7-5.1-4.5c-1.1-1.8-1.7-3.8-1.7-6.1c0-2.5,0.7-4.8,2.1-6.9c1.4-2.1,3.4-3.8,6-4.9
		c2.6-1.1,5.6-1.7,8.8-1.7c3.6,0,6.7,0.6,9.4,1.7c2.7,1.2,4.8,2.9,6.3,5.1c1.5,2.3,2.3,4.8,2.4,7.7l-6.1,0.5c-0.3-3.1-1.4-5.4-3.3-7
		c-1.9-1.6-4.7-2.4-8.4-2.4c-3.9,0-6.7,0.7-8.4,2.1c-1.8,1.4-2.6,3.2-2.6,5.2c0,1.8,0.6,3.2,1.9,4.3c1.2,1.1,4.4,2.3,9.6,3.5
		c5.2,1.2,8.7,2.2,10.6,3.1c2.8,1.3,4.9,3,6.2,5c1.3,2,2,4.3,2,6.9c0,2.6-0.7,5-2.2,7.3c-1.5,2.3-3.6,4.1-6.3,5.4
		c-2.7,1.3-5.8,1.9-9.3,1.9c-4.4,0-8-0.6-10.9-1.9c-2.9-1.3-5.3-3.2-6.9-5.8C410.5,79.9,409.6,77,409.6,73.7z"/>
	<path fill="#C45D40" d="M456.7,89.4V40.6h34.8v5.8h-28.4v15h26.6V67h-26.6v16.6h29.5v5.8H456.7z"/>
	<path fill="#C45D40" d="M533,40.6h6.4v28.2c0,4.9-0.5,8.8-1.6,11.7c-1.1,2.9-3.1,5.2-5.9,7c-2.9,1.8-6.6,2.7-11.2,2.7
		c-4.5,0-8.2-0.8-11.1-2.4c-2.9-1.6-4.9-3.9-6.1-6.8c-1.2-3-1.8-7.1-1.8-12.2V40.6h6.4v28.2c0,4.2,0.4,7.4,1.2,9.4
		c0.8,2,2.1,3.6,4,4.6c1.9,1.1,4.2,1.6,6.9,1.6c4.7,0,8-1.1,10-3.2c2-2.2,3-6.3,3-12.4V40.6z"/>
	<path fill="#C45D40" d="M549.7,89.4V40.6h9.6l11.4,34.6c1.1,3.2,1.8,5.6,2.3,7.2c0.5-1.8,1.4-4.4,2.6-7.8l11.5-34h8.6v48.8h-6.1
		V48.6l-14,40.9h-5.7l-13.9-41.6v41.6H549.7z"/>
	<path fill="#C45D40" d="M622.6,65.6c0-8.1,2.1-14.4,6.4-19c4.3-4.6,9.8-6.9,16.6-6.9c4.4,0,8.4,1.1,12,3.2c3.6,2.2,6.3,5.2,8.2,9
		c1.9,3.9,2.8,8.2,2.8,13.1c0,5-1,9.4-3,13.3c-2,3.9-4.8,6.9-8.4,8.9c-3.6,2-7.5,3-11.7,3c-4.5,0-8.6-1.1-12.1-3.3
		c-3.6-2.2-6.3-5.3-8.1-9.1C623.6,74,622.6,69.9,622.6,65.6z M629.2,65.7c0,5.9,1.6,10.5,4.7,13.9c3.1,3.4,7,5.1,11.7,5.1
		c4.8,0,8.7-1.7,11.8-5.1c3.1-3.4,4.6-8.3,4.6-14.6c0-4-0.7-7.4-2-10.4c-1.3-3-3.3-5.3-5.8-6.9c-2.5-1.6-5.4-2.4-8.6-2.4
		c-4.5,0-8.4,1.6-11.6,4.7C630.8,53.2,629.2,58.4,629.2,65.7z"/>
	<path fill="#C45D40" d="M677.2,89.4V40.6h32.5v5.8h-26.1v15.1h22.6v5.8h-22.6v22.2H677.2z"/>
	<path fill="#C45D40" d="M736.9,89.4V40.6h32.5v5.8h-26.1v15.1h22.6v5.8h-22.6v22.2H736.9z"/>
	<path fill="#C45D40" d="M778.7,89.4V40.6h6.4v48.8H778.7z"/>
	<path fill="#C45D40" d="M796.3,89.4V40.6h6.5l25.3,38.3V40.6h6.1v48.8h-6.5l-25.3-38.4v38.4H796.3z"/>
	<path fill="#C45D40" d="M845,89.4V40.6h34.8v5.8h-28.4v15H878V67h-26.6v16.6h29.5v5.8H845z"/>
	<path fill="#C45D40" d="M899.4,89.4l18.5-48.8h6.9l19.7,48.8h-7.3l-5.6-14.8h-20.1l-5.3,14.8H899.4z M913.3,69.4h16.3l-5-13.5
		c-1.5-4.1-2.7-7.5-3.4-10.1c-0.6,3.1-1.5,6.2-2.6,9.3L913.3,69.4z"/>
	<path fill="#C45D40" d="M949.6,89.4V40.6h21.3c4.3,0,7.5,0.4,9.8,1.3c2.2,0.9,4,2.4,5.3,4.6c1.3,2.2,2,4.7,2,7.4
		c0,3.5-1.1,6.4-3.3,8.8c-2.2,2.4-5.6,3.9-10.2,4.5c1.7,0.8,3,1.6,3.8,2.4c1.9,1.7,3.6,3.9,5.3,6.5l8.4,13.3h-8l-6.4-10.2
		c-1.9-2.9-3.4-5.2-4.6-6.7c-1.2-1.6-2.3-2.6-3.2-3.3c-1-0.6-1.9-1.1-2.9-1.3c-0.7-0.2-1.9-0.2-3.5-0.2h-7.4v21.7H949.6z
		 M955.9,62.2h13.7c2.9,0,5.2-0.3,6.8-0.9c1.6-0.6,2.9-1.6,3.7-2.9c0.9-1.3,1.3-2.8,1.3-4.4c0-2.3-0.8-4.2-2.5-5.7
		c-1.7-1.5-4.3-2.2-7.8-2.2h-15.2V62.2z"/>
	<path fill="#C45D40" d="M1009,89.4V46.4h-15.9v-5.8h38.1v5.8h-15.9v43.1H1009z"/>
	<path fill="#C45D40" d="M1035.7,73.7l6-0.5c0.3,2.4,0.9,4.4,2,6c1,1.6,2.7,2.8,4.8,3.8c2.2,1,4.6,1.4,7.4,1.4
		c2.4,0,4.6-0.4,6.4-1.1c1.9-0.7,3.2-1.7,4.2-3c0.9-1.3,1.4-2.7,1.4-4.2c0-1.5-0.4-2.9-1.3-4c-0.9-1.1-2.3-2.1-4.3-2.9
		c-1.3-0.5-4.1-1.3-8.6-2.4c-4.4-1.1-7.5-2.1-9.3-3c-2.3-1.2-4-2.7-5.1-4.5c-1.1-1.8-1.7-3.8-1.7-6.1c0-2.5,0.7-4.8,2.1-6.9
		c1.4-2.1,3.4-3.8,6-4.9c2.6-1.1,5.6-1.7,8.8-1.7c3.6,0,6.7,0.6,9.4,1.7c2.7,1.2,4.8,2.9,6.3,5.1c1.5,2.3,2.3,4.8,2.4,7.7l-6.1,0.5
		c-0.3-3.1-1.4-5.4-3.3-7c-1.9-1.6-4.7-2.4-8.4-2.4c-3.9,0-6.7,0.7-8.4,2.1c-1.8,1.4-2.6,3.2-2.6,5.2c0,1.8,0.6,3.2,1.9,4.3
		c1.2,1.1,4.4,2.3,9.6,3.5c5.2,1.2,8.7,2.2,10.6,3.1c2.8,1.3,4.9,3,6.2,5c1.3,2,2,4.3,2,6.9c0,2.6-0.7,5-2.2,7.3s-3.6,4.1-6.3,5.4
		c-2.7,1.3-5.8,1.9-9.3,1.9c-4.4,0-8-0.6-10.9-1.9c-2.9-1.3-5.3-3.2-6.9-5.8C1036.7,79.9,1035.8,77,1035.7,73.7z"/>
</g>
</svg>
